<?xml version="1.0" encoding="UTF-8" standalone="no"?>
<svg
   xmlns:dc="http://purl.org/dc/elements/1.1/"
   xmlns:cc="http://creativecommons.org/ns#"
   xmlns:rdf="http://www.w3.org/1999/02/22-rdf-syntax-ns#"
   xmlns:svg="http://www.w3.org/2000/svg"
   xmlns="http://www.w3.org/2000/svg"
   xmlns:sodipodi="http://sodipodi.sourceforge.net/DTD/sodipodi-0.dtd"
   xmlns:inkscape="http://www.inkscape.org/namespaces/inkscape"
   width="210mm"
   height="297mm"
   viewBox="0 0 210 297"
   version="1.1"
   id="svg8"
   inkscape:version="1.0.2 (e86c870879, 2021-01-15, custom)"
   sodipodi:docname="drawing.svg">
  <defs
     id="defs2" />
  <sodipodi:namedview
     id="base"
     pagecolor="#ffffff"
     bordercolor="#666666"
     borderopacity="1.0"
     inkscape:pageopacity="0.0"
     inkscape:pageshadow="2"
     inkscape:zoom="0.33261743"
     inkscape:cx="432.18105"
     inkscape:cy="-204.80852"
     inkscape:document-units="mm"
     inkscape:current-layer="layer1"
     inkscape:document-rotation="0"
     showgrid="false"
     inkscape:window-width="1276"
     inkscape:window-height="761"
     inkscape:window-x="0"
     inkscape:window-y="18"
     inkscape:window-maximized="0" />
  <metadata
     id="metadata5">
    <rdf:RDF>
      <cc:Work
         rdf:about="">
        <dc:format>image/svg+xml</dc:format>
        <dc:type
           rdf:resource="http://purl.org/dc/dcmitype/StillImage" />
        <dc:title></dc:title>
      </cc:Work>
    </rdf:RDF>
  </metadata>
  <g
     inkscape:label="Layer 1"
     inkscape:groupmode="layer"
     id="layer1">
    <rect
       style="fill:#0000ff;fill-opacity:0.47127;stroke-width:0.264583"
       id="rect878"
       width="84.272644"
       height="84.769806"
       x="-125.14397"
       y="-101.60864"
       ry="11.825425" />
    <path
       style="fill:#ffffff;fill-opacity:0.806634;stroke-width:0.264583"
       id="path882"
       d="m -99.653458,-64.981477 c 1.57068,-2.723886 3.47038,-5.240562 5.37244,-7.738078 2.03221,-2.572537 4.17775,-5.0536 6.35894,-7.500263 1.11561,-1.287446 2.32954,-2.498013 3.33713,-3.875412 0.0479,-0.07007 0.3362,-0.40064 0.24077,-0.559 -2.98466,-4.953108 -9.38057,2.839863 -11.84489,6.535392 -1.82375,3.254104 -1.49012,6.344154 -0.64081,9.834712 1.51558,4.933285 4.63777,9.072046 7.76069,13.092895 2.75284,3.491768 5.59227,6.911828 8.15587,10.547224 1.78081,2.444853 2.88,5.111711 3.21904,8.105529 0.13242,2.641256 -0.69836,4.107855 -2.81541,5.583926 -4.28582,2.279128 1.88264,-0.981604 7.20935,-4.304845 0.3505,-0.21867 -0.76602,0.312497 -1.16083,0.434133 -1.38385,0.426361 -2.69451,0.444836 -4.12774,0.412608 -3.19077,-0.231252 -6.21728,-1.165829 -8.98194,-2.751778 -2.87648,-2.055839 -3.2227,-4.410146 -2.94082,-7.743362 0.97513,-6.056552 4.4182,-11.110256 7.93349,-15.974202 6.64217,-8.594022 14.32066,-16.310896 21.8749,-24.091296 4.79719,-4.872486 9.51882,-9.817903 14.20846,-14.793641 0,0 -9.23028,3.86601 -9.23028,3.86601 v 0 c -4.47146,4.940215 -9.03415,9.795587 -13.69818,14.555058 -7.68524,7.928086 -15.53359,15.749075 -22.3614,24.447961 -3.71864,5.094053 -7.34504,10.410039 -8.324812,16.786611 -0.29387,4.065741 0.155442,6.206697 3.429332,8.850054 2.84411,1.723265 5.96558,2.765411 9.27407,3.174224 1.07251,0.103593 1.93001,0.233347 3.00658,0.159367 5.22425,-0.358992 9.86156,-4.367588 14.06201,-7.128243 1.98446,-1.915967 2.59305,-3.804811 2.29179,-6.56427 -0.49477,-3.143646 -1.64626,-5.960372 -3.62401,-8.486159 -2.65275,-3.598004 -5.57473,-6.976467 -8.36722,-10.464897 -3.02599,-3.906721 -6.09362,-7.897841 -7.40227,-12.754795 -0.67049,-3.490769 -0.74634,-6.161512 1.3644,-9.17938 3.11641,-4.080501 3.63337,-0.986308 -7.95434,3.795384 -1.43675,0.59288 -0.0882,-2.040493 -0.8393,-0.957299 -0.98678,1.263096 -2.04205,2.469879 -3.08886,3.68314 -2.118832,2.472317 -4.246482,4.940685 -6.222702,7.529943 -1.93991,2.622374 -3.86739,5.253513 -5.66939,7.973774 0,0 10.195942,-4.501025 10.195942,-4.501025 z" />
    <rect
       style="fill:#0000ff;fill-opacity:0.47127;stroke-width:0.264583"
       id="rect878-7"
       width="84.272644"
       height="84.769806"
       x="-7.8966107"
       y="-103.54559"
       ry="11.825425" />
    <path
       style="fill:#ffffff;fill-opacity:0.806634;stroke-width:0.264583"
       id="path914"
       d="m 2.1969075,-83.058144 c 0.4164027,2.957622 0.6186637,5.941376 0.8769047,8.915948 0.3134787,3.175075 0.5644307,6.354979 0.7405554,9.540498 0.08597,2.385382 0.155472,4.76466 0.4364777,7.136049 0.358277,2.378053 0.7715137,4.745487 1.0582084,7.133849 0.319778,2.307753 0.4617477,4.631412 0.5358127,6.958197 0.0433,1.763121 0.02814,3.526883 0.01405,5.290253 0.0065,1.058811 -0.07186,2.114106 -0.1516407,3.168912 -0.03777,0.46863 -0.06277,0.938308 -0.08095,1.408086 -0.005,0.14146 -0.0013,0.07729 -0.0096,0.192585 0,0 10.0887023,-5.126024 10.0887023,-5.126024 v 0 c -0.0073,-0.265 -0.0016,0.205831 -0.0048,-0.174481 -2.04e-4,-0.446111 0.01243,-0.891923 0.0269,-1.337771 0.03388,-1.057333 0.06312,-2.114488 0.02177,-3.17216 -0.01826,-1.760959 -0.04631,-3.522135 -0.128776,-5.28146 -0.119739,-2.348189 -0.30376,-4.693512 -0.603871,-7.026178 -0.311891,-2.37885 -0.737018,-4.73958 -1.04979,-7.118118 -0.233723,-2.348617 -0.299667,-4.70744 -0.484556,-7.060001 -0.252544,-3.174544 -0.51766,-6.347979 -0.832662,-9.517073 -0.266226,-3.021221 -0.503796,-6.04913 -0.556001,-9.082663 0,0 -9.8967375,5.151552 -9.8967375,5.151552 z" />
    <path
       style="fill:#ffffff;fill-opacity:0.806634;stroke-width:0.264583"
       id="path916"
       d="m 18.619405,-81.908429 c 2.613895,3.20491 5.388763,6.267986 8.181591,9.315957 1.876565,2.036362 3.794228,4.034459 5.673135,6.068585 0.340722,0.381271 0.688919,0.756064 1.018802,1.146905 0.100737,0.119354 0.265797,0.213303 0.290671,0.367494 0.0062,0.03872 -0.06558,-0.04304 -0.09837,-0.06456 -0.168362,-0.06728 -0.328157,-0.241466 -0.505084,-0.201846 -0.280001,0.0627 -0.48115,0.312889 -0.717476,0.475624 -0.388549,0.267557 -0.76998,0.545323 -1.156967,0.815132 -1.735876,1.210251 -3.49023,2.392365 -5.24804,3.570398 -2.857124,1.914042 -5.705649,3.841319 -8.660262,5.602831 -3.777194,2.130324 -1.078267,0.612044 8.0361,-4.661072 0,0 -8.637712,6.985559 -8.637712,6.985559 v 0 c 10.360445,-5.981522 6.78706,-3.808318 10.855298,-6.292025 2.800202,-1.771293 5.520357,-3.663303 8.277725,-5.499816 1.830568,-1.22431 3.670176,-2.437502 5.481153,-3.690793 0.07188,-0.04974 1.913036,-1.291552 2.105511,-1.61713 0.144386,-0.244232 0.07084,-0.562998 0.106259,-0.844496 -0.358715,-0.781058 -1.111047,-1.271748 -1.703096,-1.875394 -2.036947,-1.910558 -4.079189,-3.816877 -6.02876,-5.817678 -2.815093,-2.908071 -5.598631,-5.915437 -7.676624,-9.410788 0,0 -9.593849,5.627113 -9.593849,5.627113 z" />
    <path
       style="fill:#ffffff;fill-opacity:0.806634;stroke-width:0.264583"
       id="path916-3"
       d="m 36.481207,-83.867744 c 2.613895,3.20491 5.388762,6.267986 8.18159,9.315957 1.876565,2.036363 3.794228,4.034459 5.673136,6.068585 0.340722,0.381271 0.688918,0.756064 1.018802,1.146905 0.100737,0.119354 0.265797,0.213303 0.290671,0.367494 0.0062,0.03872 -0.06558,-0.04304 -0.09837,-0.06456 -0.168362,-0.06728 -0.328157,-0.241466 -0.505084,-0.201846 -0.280001,0.0627 -0.48115,0.312889 -0.717476,0.475624 -0.388549,0.267557 -0.76998,0.545323 -1.156967,0.815132 -1.735876,1.210251 -3.49023,2.392365 -5.24804,3.570398 -2.857124,1.914042 -5.705649,3.841319 -8.660262,5.602831 -3.777195,2.130324 -1.078267,0.612044 8.036099,-4.661072 0,0 -8.637712,6.985559 -8.637712,6.985559 v 0 c 10.360445,-5.981522 6.78706,-3.808318 10.855298,-6.292025 2.800202,-1.771293 5.520357,-3.663303 8.277725,-5.499816 1.830568,-1.22431 3.670176,-2.437502 5.481153,-3.690793 0.07188,-0.04974 1.913034,-1.291552 2.105509,-1.61713 0.144386,-0.244231 0.07084,-0.562997 0.106259,-0.844496 -0.358715,-0.781058 -1.111046,-1.271748 -1.703095,-1.875394 -2.036946,-1.910558 -4.079188,-3.816877 -6.028759,-5.817678 -2.815093,-2.908071 -5.598631,-5.915437 -7.676624,-9.410788 0,0 -9.593849,5.627113 -9.593849,5.627113 z" />
    <rect
       style="fill:#0000ff;fill-opacity:0.47127;stroke-width:0.264583"
       id="rect878-5"
       width="84.272644"
       height="84.769806"
       x="109.35159"
       y="-105.28429"
       ry="11.825425" />
    <ellipse
       style="fill:#ffffff;fill-opacity:1;stroke-width:0.264583"
       id="path962"
       cx="166.46095"
       cy="-78.31665"
       rx="14.874807"
       ry="14.573699" />
    <ellipse
       style="fill:#ffffff;fill-opacity:0.119219;stroke-width:0.264583"
       id="path962-1"
       cx="131.27686"
       cy="-41.567471"
       rx="14.874807"
       ry="14.573699" />
    <ellipse
       style="fill:#ffffff;fill-opacity:0.119219;stroke-width:0.264583"
       id="path962-1-3"
       cx="134.50352"
       cy="-45.355293"
       rx="14.874807"
       ry="14.573699" />
    <ellipse
       style="fill:#ffffff;fill-opacity:0.119219;stroke-width:0.264583"
       id="path962-1-6"
       cx="138.15106"
       cy="-48.581963"
       rx="14.874807"
       ry="14.573699" />
    <ellipse
       style="fill:#ffffff;fill-opacity:0.119219;stroke-width:0.264583"
       id="path962-1-0"
       cx="140.2554"
       cy="-50.826591"
       rx="14.874807"
       ry="14.573699" />
    <ellipse
       style="fill:#ffffff;fill-opacity:0.119219;stroke-width:0.264583"
       id="path962-1-62"
       cx="142.50003"
       cy="-53.632385"
       rx="14.874807"
       ry="14.573699" />
    <ellipse
       style="fill:#ffffff;fill-opacity:0.119219;stroke-width:0.264583"
       id="path962-1-61"
       cx="143.48207"
       cy="-54.894997"
       rx="14.874807"
       ry="14.573699" />
    <ellipse
       style="fill:#ffffff;fill-opacity:0.119219;stroke-width:0.264583"
       id="path962-1-8"
       cx="144.88496"
       cy="-56.578476"
       rx="14.874807"
       ry="14.573699" />
    <ellipse
       style="fill:#ffffff;fill-opacity:0.119219;stroke-width:0.264583"
       id="path962-1-7"
       cx="146.00728"
       cy="-58.261948"
       rx="14.874807"
       ry="14.573699" />
    <ellipse
       style="fill:#ffffff;fill-opacity:0.119219;stroke-width:0.264583"
       id="path962-1-9"
       cx="147.69077"
       cy="-59.805138"
       rx="14.874807"
       ry="14.573699" />
    <ellipse
       style="fill:#ffffff;fill-opacity:0.119219;stroke-width:0.264583"
       id="path962-1-2"
       cx="149.37424"
       cy="-61.628906"
       rx="14.874807"
       ry="14.573699" />
    <ellipse
       style="fill:#ffffff;fill-opacity:0.119219;stroke-width:0.264583"
       id="path962-1-02"
       cx="149.93539"
       cy="-62.610931"
       rx="14.874807"
       ry="14.573699" />
    <ellipse
       style="fill:#ffffff;fill-opacity:0.119219;stroke-width:0.264583"
       id="path962-1-37"
       cx="151.05771"
       cy="-63.733253"
       rx="14.874807"
       ry="14.573699" />
    <ellipse
       style="fill:#ffffff;fill-opacity:0.119219;stroke-width:0.264583"
       id="path962-1-5"
       cx="153.16206"
       cy="-65.557014"
       rx="14.874807"
       ry="14.573699" />
    <ellipse
       style="fill:#ffffff;fill-opacity:0.119219;stroke-width:0.264583"
       id="path962-1-92"
       cx="154.28438"
       cy="-66.679337"
       rx="14.874807"
       ry="14.573699" />
    <ellipse
       style="fill:#ffffff;fill-opacity:0.119219;stroke-width:0.264583"
       id="path962-1-28"
       cx="156.94987"
       cy="-68.923973"
       rx="14.874807"
       ry="14.573699" />
    <ellipse
       style="fill:#ffffff;fill-opacity:0.119219;stroke-width:0.264583"
       id="path962-1-97"
       cx="158.77365"
       cy="-70.888031"
       rx="14.874807"
       ry="14.573699" />
    <ellipse
       style="fill:#ffffff;fill-opacity:0.119219;stroke-width:0.264583"
       id="path962-1-36"
       cx="159.75568"
       cy="-71.870056"
       rx="14.874807"
       ry="14.573699" />
    <ellipse
       style="fill:#ffffff;fill-opacity:0.119219;stroke-width:0.264583"
       id="path962-1-1"
       cx="161.43915"
       cy="-73.413246"
       rx="14.874807"
       ry="14.573699" />
    <ellipse
       style="fill:#ffffff;fill-opacity:0.119219;stroke-width:0.264583"
       id="path962-1-29"
       cx="163.12263"
       cy="-74.816139"
       rx="14.874807"
       ry="14.573699" />
    <ellipse
       style="fill:#ffffff;fill-opacity:0.119219;stroke-width:0.264583"
       id="path962-1-31"
       cx="166.06871"
       cy="-76.920486"
       rx="14.874807"
       ry="14.573699" />
    <ellipse
       style="fill:#ffffff;fill-opacity:0.119219;stroke-width:0.264583"
       id="path962-1-94"
       cx="166.34929"
       cy="-77.201065"
       rx="14.874807"
       ry="14.573699" />
    <ellipse
       style="fill:#ffffff;fill-opacity:0.119219;stroke-width:0.264583"
       id="path962-1-78"
       cx="166.34929"
       cy="-77.341354"
       rx="14.874807"
       ry="14.573699" />
    <ellipse
       style="fill:#ffffff;fill-opacity:0.119219;stroke-width:0.264583"
       id="path962-1-4"
       cx="166.34929"
       cy="-77.341354"
       rx="14.874807"
       ry="14.573699" />
  </g>
</svg>
