<?xml version="1.0" encoding="UTF-8" standalone="no"?>
<svg
   xmlns:dc="http://purl.org/dc/elements/1.1/"
   xmlns:cc="http://creativecommons.org/ns#"
   xmlns:rdf="http://www.w3.org/1999/02/22-rdf-syntax-ns#"
   xmlns:svg="http://www.w3.org/2000/svg"
   xmlns="http://www.w3.org/2000/svg"
   xmlns:sodipodi="http://sodipodi.sourceforge.net/DTD/sodipodi-0.dtd"
   xmlns:inkscape="http://www.inkscape.org/namespaces/inkscape"
   width="210mm"
   height="297mm"
   viewBox="0 0 210 297"
   version="1.1"
   id="svg8"
   inkscape:version="1.0.2 (e86c870879, 2021-01-15)"
   sodipodi:docname="logo.svg">
  <defs
     id="defs2">
    <filter
       inkscape:collect="always"
       style="color-interpolation-filters:sRGB"
       id="filter1133"
       x="-0.37778238"
       width="1.7555648"
       y="-1.4404785"
       height="3.8809571">
      <feGaussianBlur
         inkscape:collect="always"
         stdDeviation="14.099563"
         id="feGaussianBlur1135" />
    </filter>
    <filter
       inkscape:collect="always"
       style="color-interpolation-filters:sRGB"
       id="filter1467"
       x="-0.23824947"
       width="1.4764989"
       y="-0.51911687"
       height="2.0382337">
      <feGaussianBlur
         inkscape:collect="always"
         stdDeviation="6.1452697"
         id="feGaussianBlur1469" />
    </filter>
    <filter
       inkscape:collect="always"
       style="color-interpolation-filters:sRGB"
       id="filter1705"
       x="-0.38591296"
       width="1.7718259"
       y="-0.76250082"
       height="2.5250016">
      <feGaussianBlur
         inkscape:collect="always"
         stdDeviation="8.8419276"
         id="feGaussianBlur1707" />
    </filter>
    <filter
       inkscape:collect="always"
       style="color-interpolation-filters:sRGB"
       id="filter1467-3"
       x="-0.23824947"
       width="1.4764988"
       y="-0.51911688"
       height="2.0382338">
      <feGaussianBlur
         inkscape:collect="always"
         stdDeviation="6.1452697"
         id="feGaussianBlur1469-6" />
    </filter>
    <filter
       inkscape:collect="always"
       style="color-interpolation-filters:sRGB"
       id="filter1705-3"
       x="-0.38591295"
       width="1.7718259"
       y="-0.76250082"
       height="2.5250015">
      <feGaussianBlur
         inkscape:collect="always"
         stdDeviation="8.8419276"
         id="feGaussianBlur1707-5" />
    </filter>
    <filter
       inkscape:collect="always"
       style="color-interpolation-filters:sRGB"
       id="filter2067"
       x="-0.18276466"
       width="1.3655293"
       y="-0.3563117"
       height="1.7126234">
      <feGaussianBlur
         inkscape:collect="always"
         stdDeviation="4.264675"
         id="feGaussianBlur2069" />
    </filter>
    <filter
       inkscape:collect="always"
       style="color-interpolation-filters:sRGB"
       id="filter2191"
       x="-0.18614669"
       width="1.3722934"
       y="-0.14986627"
       height="1.2997325">
      <feGaussianBlur
         inkscape:collect="always"
         stdDeviation="1.1126145"
         id="feGaussianBlur2193" />
    </filter>
    <filter
       inkscape:collect="always"
       style="color-interpolation-filters:sRGB"
       id="filter2317"
       x="-0.35930735"
       width="1.7186147"
       y="-0.46384727"
       height="1.9276945">
      <feGaussianBlur
         inkscape:collect="always"
         stdDeviation="2.2104193"
         id="feGaussianBlur2319" />
    </filter>
    <filter
       inkscape:collect="always"
       style="color-interpolation-filters:sRGB"
       id="filter2649"
       x="-0.2317815"
       width="1.463563"
       y="-0.12920869"
       height="1.2584174">
      <feGaussianBlur
         inkscape:collect="always"
         stdDeviation="1.2777844"
         id="feGaussianBlur2651" />
    </filter>
    <filter
       inkscape:collect="always"
       style="color-interpolation-filters:sRGB"
       id="filter2847"
       x="-0.255033"
       width="1.510066"
       y="-0.31171912"
       height="1.6234382">
      <feGaussianBlur
         inkscape:collect="always"
         stdDeviation="2.4615052"
         id="feGaussianBlur2849" />
    </filter>
  </defs>
  <sodipodi:namedview
     id="base"
     pagecolor="#ffffff"
     bordercolor="#666666"
     borderopacity="1.0"
     inkscape:pageopacity="0.0"
     inkscape:pageshadow="2"
     inkscape:zoom="0.98994949"
     inkscape:cx="397.45639"
     inkscape:cy="275.84549"
     inkscape:document-units="mm"
     inkscape:current-layer="layer1"
     inkscape:document-rotation="0"
     showgrid="false"
     inkscape:window-width="1916"
     inkscape:window-height="1041"
     inkscape:window-x="0"
     inkscape:window-y="18"
     inkscape:window-maximized="1" />
  <metadata
     id="metadata5">
    <rdf:RDF>
      <cc:Work
         rdf:about="">
        <dc:format>image/svg+xml</dc:format>
        <dc:type
           rdf:resource="http://purl.org/dc/dcmitype/StillImage" />
        <dc:title></dc:title>
      </cc:Work>
    </rdf:RDF>
  </metadata>
  <g
     inkscape:label="Layer 1"
     inkscape:groupmode="layer"
     id="layer1">
    <path
       style="fill:#000000;stroke:#000000;stroke-width:0.264583px;stroke-linecap:butt;stroke-linejoin:miter;stroke-opacity:1"
       d="m 35.157034,45.648766 c 1.103484,1.786567 28.465901,44.326433 28.465901,44.326433 L 103.41318,89.966701 136.07387,41.264985 102.09392,0.57224617 63.233336,0.9172382 Z"
       id="path1709" />
    <path
       style="fill:#0000ff;stroke:#000080;stroke-width:3.62479;stop-color:#000000"
       id="path837"
       d="m 54.433684,56.948953 c 2.639229,3.244659 5.309819,6.462292 7.870359,9.769766 2.85247,3.789018 5.417558,7.778578 8.290554,11.552216 0.843672,1.073399 1.658149,2.169094 2.476993,3.261371 0.172669,0.230327 0.337312,0.466968 0.519141,0.690136 0.114266,0.140243 0.188431,0.377621 0.368088,0.398783 1.392727,0.16406 2.803166,0.09326 4.204748,0.139888 0.127844,-0.185346 0.267896,-0.362837 0.38353,-0.556033 0.752808,-1.257739 1.385286,-2.600896 2.102699,-3.879088 1.092737,-1.946894 1.329907,-2.322917 2.506284,-4.317317 1.292265,-2.193512 2.638851,-4.356161 4.031969,-6.487112 0.312936,-0.478674 1.316027,-2.050381 1.838423,-2.533378 0.200975,-0.185817 0.477695,-0.267361 0.716542,-0.401042 -1.030472,0.08543 -2.133086,-0.132003 -3.09142,0.256291 -0.317773,0.128754 0.541938,0.426757 0.766796,0.685591 0.286915,0.330264 0.530331,0.697765 0.758995,1.070735 0.258585,0.421777 0.469913,0.870788 0.699881,1.308827 1.902851,3.624564 -0.399465,-0.685093 1.770253,3.354721 2.170933,3.573722 4.160411,7.25887 6.358025,10.815992 1.282988,1.489443 0.83866,1.247563 4.722376,0.453104 0.32828,-0.06715 0.32313,-0.58778 0.46296,-0.892294 0.48185,-1.049377 1.05682,-2.641743 1.44369,-3.6253 0.43218,-1.098727 0.8749,-2.193282 1.31235,-3.289921 2.73044,-6.924223 6.03084,-13.60097 9.68647,-20.08001 0.81447,-1.443535 1.6744,-2.86095 2.5116,-4.291422 0,0 -2.60265,-0.132779 -2.60265,-0.132779 v 0 c -4.30004,8.070395 -8.53171,16.176649 -12.57693,24.378475 -0.89518,1.797667 -1.84015,3.734525 -2.790736,5.522987 -0.232216,0.436901 -0.448881,0.884529 -0.72372,1.295956 -0.157805,0.236233 -0.838284,0.551828 -0.567033,0.636283 1.074774,0.334632 2.245899,0.315796 3.368729,0.236027 0.24742,-0.01757 -0.40377,-0.288216 -0.60565,-0.432322 -2.571841,-3.329826 -4.536108,-7.089859 -6.571995,-10.757627 -1.622618,-3.305522 -0.184367,-0.350451 -1.617813,-3.360364 -0.541295,-1.136597 -0.660254,-1.468353 -1.346467,-2.484372 -0.211624,-0.313333 -0.312113,-0.831524 -0.682863,-0.90574 -1.454605,-0.291169 -2.965815,-0.08097 -4.448723,-0.121457 -0.195384,0.176893 -0.421153,0.325154 -0.586152,0.53068 -0.390129,0.485947 -1.339671,2.171549 -1.576044,2.577158 -1.27145,2.181746 -2.563492,4.350936 -3.898704,6.494521 -3.295325,5.210762 0.272134,-0.440351 -2.709746,4.311189 -0.461299,0.735063 -1.384033,2.210412 -1.918719,2.985075 -0.183846,0.266353 -0.355335,0.545642 -0.579776,0.778811 -0.109768,0.114036 -0.270902,0.163777 -0.406352,0.245663 1.164521,0.04775 2.330249,0.2145 3.493569,0.143235 0.187573,-0.01148 -0.321821,-0.199366 -0.457674,-0.32921 -0.217612,-0.207992 -0.401709,-0.448533 -0.596321,-0.678186 -0.904758,-1.06767 -1.758611,-2.177835 -2.659377,-3.248821 -3.018636,-3.743333 -5.781712,-7.680963 -8.67347,-11.521591 -2.392961,-3.229308 -4.938318,-6.368446 -7.045981,-9.795899 0,0 -3.930708,0.227804 -3.930708,0.227804 z" />
    <path
       style="fill:#0000ff;stroke:#0000ff;stroke-width:3.62479;stop-color:#000000;filter:url(#filter1467)"
       id="path1137"
       d="m 50.352615,59.562071 c 2.821398,2.436579 5.603574,4.907287 8.232296,7.55184 2.048992,2.11396 3.836612,4.457761 5.298644,7.010747 1.005885,1.879928 2.01653,3.758655 3.13422,5.574905 0.843997,1.334876 1.53172,2.758136 2.307288,4.131477 0.459394,0.80037 0.889151,1.616284 1.319419,2.432336 0.689512,1.618168 3.770995,2.036961 4.622691,0.197278 0.741186,-1.788292 1.451367,-3.590702 2.202794,-5.375658 1.366139,-3.171727 2.994475,-6.216872 4.624126,-9.257837 0.979381,-1.84367 1.806837,-3.77458 2.891853,-5.560086 0.560091,-1.046158 1.285658,-1.980179 1.987413,-2.930549 0.10297,-0.119018 0.455186,-0.555295 0.620448,-0.642528 0.08746,-0.04616 0.39299,-0.04131 0.294137,-0.03867 -1.19184,0.03178 -2.393887,-0.03964 -3.574563,0.126156 -0.172543,0.02424 0.296674,0.189815 0.415221,0.317502 0.203245,0.218919 0.361389,0.475748 0.542086,0.713621 1.504434,2.631649 2.557293,5.496394 3.701791,8.296924 0.851053,2.259242 1.996009,4.368559 3.270311,6.410306 0.571015,0.909812 1.146601,1.818161 1.668068,2.757614 0.390358,0.611802 0.612934,1.299269 0.848815,1.979544 1.397526,0.01847 2.818021,0.308428 4.192579,0.05542 0.347078,-0.06388 0.348618,-0.613727 0.519187,-0.922676 0.663631,-1.202042 1.080211,-2.022858 1.810291,-3.238145 1.27201,-2.117384 1.62928,-2.567139 3.07451,-4.677508 1.95394,-2.722076 3.81567,-5.512472 5.87252,-8.15989 0.6567,-0.845259 1.35204,-1.659776 2.02807,-2.489663 0,0 -3.09256,-0.208365 -3.09256,-0.208365 v 0 c -2.72555,3.49899 -5.36761,7.058033 -7.94954,10.664521 -1.554831,2.137352 -1.897315,2.565342 -3.3256,4.684432 -0.406498,0.603104 -0.78999,1.22147 -1.194556,1.825873 -0.305991,0.457134 -0.593985,0.928421 -0.936961,1.358504 -0.203476,0.255156 -1.005436,0.585943 -0.695733,0.688855 1.142616,0.379675 2.401012,0.184465 3.601519,0.276699 -0.282017,-0.679371 -0.42736,-1.415801 -0.841351,-2.03541 -0.536456,-0.972741 -1.268997,-1.824996 -1.848276,-2.771924 -0.361913,-0.555085 -0.74004,-1.099793 -1.08939,-1.662866 -0.920782,-1.484082 -1.66565,-3.071373 -2.348593,-4.675981 -1.182161,-2.787621 -2.257261,-5.622274 -3.519265,-8.374806 -0.150093,-0.263983 -0.286613,-0.536157 -0.450278,-0.791946 -0.109673,-0.171405 -0.166363,-0.460147 -0.368068,-0.487026 -3.199503,-0.426363 -3.727603,-0.961004 -5.07964,0.772893 -0.716698,0.939675 -1.345036,1.936559 -1.90333,2.978914 -1.020871,1.803832 -1.780202,3.744558 -2.727754,5.587188 -1.549561,3.073956 -3.051162,6.171888 -4.529055,9.280877 -0.861894,1.762627 -1.678887,3.565829 -2.616145,5.286369 -1.15897,0.978292 -0.121504,0.04053 3.683072,0.109048 0.04304,7.94e-4 -0.03791,0.08786 -0.07833,0.102677 -0.158589,0.05815 -0.331965,-0.304347 -0.393005,-0.36594 -0.465505,-0.816655 -0.934524,-1.630725 -1.421606,-2.434976 -0.804812,-1.373918 -1.524675,-2.797543 -2.382255,-4.141166 -1.14554,-1.807384 -2.201159,-3.667257 -3.20353,-5.55789 -1.511406,-2.610133 -3.42351,-4.943618 -5.541717,-7.088468 -1.479854,-1.468797 -1.44667,-1.455174 -2.985283,-2.902765 -1.369814,-1.288774 -2.805853,-2.516931 -4.101494,-3.882607 -0.24416,-0.25736 -0.46687,-0.534249 -0.700307,-0.801372 0,0 -3.865187,0.304197 -3.865187,0.304197 z" />
    <path
       style="fill:#0000ff;stroke:#00eaff;stroke-width:3.62479;stop-color:#000000;stroke-opacity:1;filter:url(#filter1705)"
       id="path1471"
       d="m 47.829345,52.90404 c 3.670729,2.668868 6.793071,5.989923 9.914408,9.260528 3.100099,3.190393 6.094109,6.48046 9.004343,9.844264 1.927534,2.21216 3.852433,4.42748 5.805238,6.61738 0.480783,0.410139 0.874073,1.168969 1.35681,1.574642 0.1065,0.0895 0.226888,0.209208 0.365757,0.200985 1.439434,-0.08524 2.916635,-0.06855 4.299461,-0.477242 0.331729,-0.09804 0.307351,-0.61981 0.461026,-0.929717 1.396166,-3.570981 1.90418,-7.389188 2.524495,-11.148626 0.09293,-0.616093 0.182909,-1.232638 0.278784,-1.848281 0.08307,-0.533424 0.173781,-1.065636 0.258043,-1.598875 0.203803,-1.28973 0.334274,-2.614863 0.833935,-3.830529 1.148209,-0.518668 2.370685,-1.030687 -3.16111,0.06728 -0.248084,0.04924 0.459595,0.215911 0.669655,0.35678 1.164389,0.780844 2.186387,1.825858 3.218678,2.764017 1.043051,0.986846 2.087179,1.974276 3.185967,2.899572 0.40382,0.340058 0.972391,0.816623 1.448638,1.078195 0.211736,0.116293 0.444717,0.18881 0.667076,0.283216 1.502823,-0.02561 3.016401,0.10447 4.508468,-0.07681 0.380005,-0.04617 1.854681,-1.435465 1.959835,-1.535859 1.837605,-1.75446 3.516251,-3.682002 5.227988,-5.555929 0.7202,-0.793726 1.44041,-1.587455 2.16062,-2.381181 0,0 -3.08107,-0.229296 -3.08107,-0.229296 v 0 c -0.735224,0.791178 -1.470448,1.582356 -2.205675,2.373534 -1.833129,1.881307 -3.642572,3.80696 -5.680326,5.473666 -0.382612,0.312941 -0.770681,0.623443 -1.19149,0.882758 -0.295667,0.1822 -1.281174,0.341114 -0.946783,0.434912 0.971561,0.272526 2.015715,0.09842 3.023571,0.147635 -0.230156,-0.06624 -0.470895,-0.103077 -0.690464,-0.198724 -0.475729,-0.207237 -1.169006,-0.719941 -1.559738,-1.016777 -1.16097,-0.881992 -2.251625,-1.852623 -3.295647,-2.869425 -0.390364,-0.37279 -0.782952,-0.743257 -1.171088,-1.118365 -1.452126,-1.403381 -4.676177,-5.225169 -6.93311,-1.897851 -0.561903,2.404036 -0.523412,4.915845 -0.94978,7.343519 -0.546806,3.748748 -1.115348,7.570906 -2.816902,11.001247 -0.18958,0.265306 -0.873104,0.678921 -0.568738,0.795917 1.058563,0.406908 2.262142,0.169664 3.389971,0.288558 0.127596,0.01344 -0.266843,0.08095 -0.383865,0.02834 -0.165735,-0.0745 -0.265914,-0.247894 -0.393134,-0.377637 -0.378894,-0.386414 -0.728792,-0.800624 -1.114179,-1.180883 -2.070489,-2.140405 -4.073882,-4.346126 -6.031944,-6.58966 -2.981436,-3.380269 -6.109753,-6.626468 -9.270571,-9.838804 -3.020021,-3.183622 -6.029643,-6.383311 -9.268077,-9.348573 0,0 -3.849076,0.3321 -3.849076,0.332099 z" />
    <path
       style="fill:#0000ff;stroke:#000080;stroke-width:3.62479;stop-color:#000000"
       id="path837-7"
       d="m 56.659814,28.49629 c 2.63923,-3.244659 5.30982,-6.462292 7.87036,-9.769766 2.85247,-3.789018 5.41756,-7.778578 8.29055,-11.5522162 0.84367,-1.073399 1.65815,-2.169094 2.47699,-3.261371 0.17267,-0.230327 0.33732,-0.466968 0.51914,-0.690136 0.11427,-0.140243 0.18844,-0.377621 0.36809,-0.398783 1.39273,-0.16406 2.80317,-0.09326 4.20475,-0.139888 0.12784,0.185346 0.2679,0.362837 0.38353,0.556033 0.75281,1.257739 1.38529,2.600896 2.1027,3.879088 1.09274,1.946894 1.32991,2.322917 2.50628,4.3173172 1.29227,2.193512 2.63885,4.356161 4.03197,6.487112 0.31294,0.478674 1.31603,2.050381 1.83843,2.533378 0.20097,0.185817 0.47769,0.267361 0.71654,0.401042 -1.03047,-0.08543 -2.13309,0.132003 -3.09142,-0.256291 -0.31778,-0.128754 0.54194,-0.426757 0.76679,-0.685591 0.28692,-0.330264 0.53033,-0.697765 0.759,-1.070735 0.25858,-0.421777 0.46991,-0.870788 0.69988,-1.308827 1.90285,-3.624564 -0.39947,0.685093 1.77025,-3.354721 2.17094,-3.573722 4.16041,-7.2588702 6.35803,-10.8159922 1.282986,-1.489443 0.838656,-1.247563 4.722366,-0.453104 0.32828,0.06715 0.32313,0.58778 0.46296,0.892294 0.48185,1.049377 1.05682,2.641743 1.44369,3.6253 0.43218,1.098727 0.8749,2.193282 1.31235,3.2899212 2.73044,6.924223 6.03084,13.60097 9.68647,20.08001 0.81447,1.443535 1.6744,2.86095 2.5116,4.291422 0,0 -2.60265,0.132779 -2.60265,0.132779 v 0 C 112.46842,27.15417 108.23675,19.047916 104.19153,10.84609 103.29635,9.0484228 102.35138,7.1115648 101.4008,5.3231028 c -0.23222,-0.436901 -0.44888,-0.884529 -0.72372,-1.295956 -0.15781,-0.236233 -0.838286,-0.551828 -0.56704,-0.636283 1.07478,-0.334632 2.2459,-0.315796 3.36873,-0.236027 0.24742,0.01757 -0.40377,0.288216 -0.60565,0.432322 -2.57184,3.329826 -4.536096,7.0898592 -6.571986,10.7576272 -1.62262,3.305522 -0.18437,0.350451 -1.61781,3.360364 -0.5413,1.136597 -0.66026,1.468353 -1.34647,2.484372 -0.21163,0.313333 -0.31211,0.831524 -0.68286,0.90574 -1.45461,0.291169 -2.96582,0.08097 -4.44873,0.121457 -0.19538,-0.176893 -0.42115,-0.325154 -0.58615,-0.53068 -0.39013,-0.485947 -1.33967,-2.171549 -1.57604,-2.577158 -1.27145,-2.181746 -2.5635,-4.350936 -3.89871,-6.494521 -3.29532,-5.2107622 0.27214,0.440351 -2.70974,-4.3111892 -0.4613,-0.735063 -1.38404,-2.210412 -1.91872,-2.985075 -0.18385,-0.266353 -0.35534,-0.545642 -0.57978,-0.778811 -0.10977,-0.114036 -0.2709,-0.163777 -0.40635,-0.245663 1.16452,-0.04775 2.33025,-0.2145 3.49357,-0.143235 0.18757,0.01148 -0.32182,0.199366 -0.45767,0.32921 -0.21762,0.207992 -0.40171,0.448533 -0.59633,0.678186 -0.90475,1.06767 -1.75861,2.177835 -2.65937,3.248821 -3.01864,3.7433332 -5.78171,7.6809632 -8.67347,11.5215912 -2.39296,3.229308 -4.93832,6.368446 -7.04598,9.795899 0,0 -3.93071,-0.227804 -3.93071,-0.227804 z" />
    <path
       style="fill:#000080;stroke:#d45500;stroke-width:3.62479;stop-color:#000000"
       id="path841"
       d="m 46.937178,45.791455 c 1.232281,0.03451 3.562911,-0.183742 -1.826583,0.01437 -0.348758,0.01283 0.697622,0.02426 1.046046,0.04421 0.957384,0.05481 1.18717,0.09 2.153968,0.189809 1.784657,0.256635 3.566758,0.528188 5.359003,0.727522 1.818449,0.206312 3.611261,0.129413 5.459391,0.08035 0.255498,-0.0068 0.494517,-0.129574 0.743032,-0.18928 1.021461,-0.250812 1.686298,-0.970261 2.328053,-1.753182 0.965883,-1.439085 1.800183,-2.96422 2.686815,-4.453631 0.568798,-0.91047 0.970735,-1.964033 1.720072,-2.753738 0.397319,-0.418722 0.590325,-0.495226 1.07047,-0.789887 0.387799,-0.176078 0.628687,-0.307657 1.037907,-0.412409 0.146209,-0.03742 0.297712,-0.04978 0.446566,-0.07467 -1.138528,0.02482 -2.281478,-0.02884 -3.41558,0.07447 -0.150611,0.01373 0.290285,0.103931 0.407464,0.199538 0.158826,0.12959 0.269764,0.308713 0.404646,0.463071 0.993907,1.579952 1.228936,3.486198 1.598054,5.283076 0.457999,1.853681 1.136994,3.641219 2.170427,5.249457 0.254916,0.324165 0.376341,0.546603 0.740193,0.755629 0.136274,0.07829 0.284948,0.161941 0.442095,0.163841 1.436944,0.01738 2.879079,0.02797 4.309835,-0.106373 0.215596,-0.02024 0.93046,-0.78218 1.012335,-0.862997 1.253535,-1.404424 2.089603,-3.095019 2.942926,-4.754988 0.656202,-1.147374 1.026272,-2.496466 1.999219,-3.432366 0.299894,-0.148571 0.630147,-0.243491 0.966075,-0.260403 0.09996,-0.005 0.399995,0.01262 0.299921,0.01429 -3.640129,0.06045 -4.684514,-0.415409 -3.274763,0.164679 0.102944,0.08544 0.218987,0.1572 0.308829,0.256323 0.563806,0.622041 1.100193,1.994937 1.406067,2.780755 0.4097,1.190162 0.930805,2.339626 1.539738,3.440454 0.305332,0.522091 0.683334,0.910862 1.271915,1.064741 1.674464,0.184365 0.84595,0.105315 4.566997,0.007 0.258318,-0.0068 0.686271,-0.176602 0.906378,-0.285165 0.395856,-0.195247 0.592886,-0.357984 0.955437,-0.615337 1.203828,-1.15167 1.724197,-2.721475 2.170324,-4.279397 0.467598,-1.615858 0.818684,-3.292247 1.615387,-4.785847 0.43403,-0.67066 1.108437,-1.213479 1.931154,-1.309936 0.131794,-0.01545 0.265023,0.01408 0.397534,0.02109 -1.150348,0.02754 -2.306574,-0.03673 -3.451043,0.08263 -0.162668,0.01696 0.299847,0.136151 0.432221,0.232203 0.156062,0.113242 0.298209,0.246846 0.426434,0.390851 0.54464,0.611671 0.882926,1.350322 1.220944,2.084816 0.79371,1.787638 1.234077,3.70152 1.834047,5.557221 0.555908,1.634246 1.244205,3.096942 2.404525,4.383053 0.241329,0.202816 0.542407,0.496861 0.852487,0.611608 0.16204,0.05997 0.33653,0.103476 0.50918,0.09699 1.46447,-0.05504 2.93935,-0.05627 4.38752,-0.281022 0.18947,-0.0294 1.13347,-1.042945 1.2087,-1.120119 1.23431,-1.451903 1.77907,-3.269498 2.16704,-5.097507 0.14972,-0.871895 0.10335,-1.789448 0.91728,-2.311239 0.0892,-0.02775 0.17601,-0.0653 0.26773,-0.08327 0.47623,-0.09326 0.99752,-0.08733 1.47913,-0.09971 0.6574,-0.01688 1.41567,-0.0208 2.06163,-0.02698 0.50412,-0.0021 2.01617,0.01066 1.51235,-0.0067 -0.58749,-0.02024 -1.17597,-0.02027 -1.76352,-0.0019 -0.56963,0.01775 1.1398,0.0016 1.7097,0.0036 2.44617,0.0084 4.89376,0.06122 7.3376,-0.06291 0.83339,-0.06285 1.77022,-0.160591 2.05083,-1.061045 -0.0302,-0.126622 -0.037,-0.261263 -0.0906,-0.379868 -0.33007,-0.729612 -1.54952,-1.762551 -2.13997,-2.356815 -1.95035,-2.13395 -0.29559,-1.434484 -5.10165,-0.992495 0.74389,1.49289 1.8807,2.768084 3.03848,3.953447 1.09634,1.117817 2.42742,1.963914 3.57445,3.020901 0.0139,0.03159 0.0673,0.117792 0.0416,0.09475 -0.0582,-0.05223 -0.0658,-0.174548 -0.14315,-0.185875 -0.11623,-0.01701 -1.03137,0.331317 -1.05281,0.34 -1.07469,0.43528 -0.96157,0.422966 -2.0578,1.045348 -1.76048,1.143002 -3.23472,2.703436 -4.41315,4.436038 -0.26377,0.387808 -0.48344,0.803842 -0.72516,1.205762 0,0 3.61042,0.193654 3.61042,0.193654 v 0 c 0.2284,-0.389766 0.435,-0.793152 0.6852,-1.1693 1.1544,-1.735542 2.65021,-3.225778 4.45741,-4.273169 0.39678,-0.196667 0.78431,-0.41322 1.19035,-0.589999 0.33402,-0.145423 0.68198,-0.256744 1.02649,-0.375161 0.23769,-0.0817 0.48207,-0.143007 0.71965,-0.225025 0.47258,-0.163148 0.84716,-0.26678 0.53211,-0.828077 -1.22675,-1.020347 -2.60492,-1.854526 -3.74778,-2.979272 -1.09244,-1.08522 -2.11446,-2.277676 -2.76741,-3.687218 -1.32265,0.02752 -2.64535,0.05244 -3.96795,0.08255 -0.0419,0.0011 0.0887,-0.01482 0.12568,0.0049 0.0789,0.0422 0.14208,0.10959 0.2059,0.172336 0.33933,0.333608 0.59563,0.74277 0.95562,1.05754 0.73747,0.721204 1.55364,1.399823 2.08881,2.294797 -0.29405,0.612791 -1.23708,0.544722 -1.78546,0.636762 -1.97302,0.108559 -0.54798,0.0097 1.38588,0.07669 0.51824,0.01796 -1.03709,7.93e-4 -1.55564,5.29e-4 -2.31536,-0.0016 -4.63072,-0.0052 -6.94608,-0.0092 -0.53307,-7.94e-4 -1.06613,-0.0036 -1.59919,-0.0054 -0.89723,5.29e-4 -2.97042,-0.125931 -3.82984,0.257294 -0.10119,0.04512 -0.18621,0.120126 -0.27931,0.180189 -0.73111,0.758719 -0.67515,1.584037 -0.8004,2.580674 -0.31359,1.781615 -0.84409,3.525968 -2.12438,4.867278 -0.21309,0.190675 -0.4115,0.399137 -0.63925,0.572024 -0.19561,0.148481 -0.86652,0.338741 -0.62602,0.388429 1.05925,0.218845 2.16295,0.06806 3.24132,0.1519 0.16132,0.01254 -0.32062,0.0812 -0.48136,0.06268 -0.31149,-0.0359 -0.64644,-0.313147 -0.88379,-0.474564 -1.22673,-1.169305 -1.95769,-2.605424 -2.49638,-4.203816 -0.59619,-1.867768 -1.0658,-3.780976 -1.815674,-5.595732 -0.393224,-0.947684 -0.803103,-1.961276 -1.548548,-2.697072 -0.128823,-0.127159 -0.239054,-0.325445 -0.418952,-0.345488 -1.411846,-0.157287 -2.838752,-0.117043 -4.258127,-0.175564 -1.017998,0.198718 -1.822977,0.75224 -2.293234,1.696424 -0.701866,1.551045 -1.056476,3.223821 -1.53797,4.850984 -0.467823,1.481368 -0.990838,3.010588 -2.25484,4.009411 -0.463124,0.281239 -0.894353,0.534398 -1.433563,0.639948 -0.151098,0.02958 -0.61255,0.05086 -0.458634,0.05481 1.061464,0.02726 4.846061,0.03464 3.185377,0.01963 -0.574482,-0.01603 -0.963094,-0.230357 -1.301067,-0.7157 -0.681215,-1.046792 -1.202111,-2.188941 -1.603886,-3.370575 -0.247129,-0.6525 -0.513434,-1.286888 -0.812744,-1.917298 -0.100338,-0.211338 -0.383707,-0.814932 -0.524121,-1.025853 -0.08576,-0.128818 -0.197266,-0.238493 -0.295897,-0.357738 -1.400424,-1.089059 -0.247481,-0.288956 -4.491871,-0.35307 -0.470998,-0.0071 -0.935215,0.263011 -1.278993,0.553373 -0.821719,1.060783 -1.181105,2.377633 -1.83107,3.539413 -0.844455,1.6323 -1.685433,3.301963 -3.007633,4.609912 -0.187767,0.146424 -0.361386,0.313071 -0.5633,0.43927 -0.154096,0.09631 -0.677783,0.203229 -0.497205,0.223559 1.117581,0.125828 2.248244,0.0685 3.372442,0.100161 0.144775,0.0041 -0.294338,0.0204 -0.434149,-0.01741 -0.387908,-0.104912 -0.517512,-0.325487 -0.785477,-0.605014 -1.137078,-1.510038 -1.839267,-3.25537 -2.268577,-5.092523 -0.375716,-1.842328 -0.589452,-3.775218 -1.492239,-5.452462 -0.0604,-0.09438 -0.548603,-0.956424 -0.782688,-0.9779 -2.524255,-0.231598 -3.860464,-0.493051 -5.715905,0.599236 -0.498496,0.366239 -0.647763,0.43247 -1.058256,0.91693 -0.706784,0.834144 -1.101892,1.876888 -1.668561,2.799887 -0.873154,1.487434 -1.722281,3.003473 -2.766052,4.379026 -0.669716,0.720426 -1.370952,1.324488 -2.370788,1.503024 -1.422138,0.295526 -3.212605,0.133524 2.773672,0.145978 0.12115,2.52e-4 -0.2422,-0.0073 -0.363228,-0.01281 -0.41951,-0.01897 -0.524883,-0.0297 -0.965002,-0.06121 -1.839428,-0.16252 -3.66872,-0.410297 -5.491736,-0.703865 -2.961669,-0.34743 -5.93349,-0.356807 -8.915675,-0.326234 0,0 3.887229,0.615677 3.887229,0.615677 z" />
    <path
       style="fill:#0000ff;stroke:#0000ff;stroke-width:3.62479;filter:url(#filter1467-3);stop-color:#000000"
       id="path1137-5"
       d="m 120.32245,50.777906 c 2.8214,2.436579 5.60357,4.907287 8.23229,7.55184 2.049,2.11396 3.83662,4.457761 5.29865,7.010747 1.00588,1.879928 2.01653,3.758655 3.13422,5.574905 0.844,1.334876 1.53172,2.758136 2.30729,4.131477 0.45939,0.80037 0.88915,1.616284 1.31942,2.432336 0.68951,1.618168 3.77099,2.036961 4.62269,0.197278 0.74118,-1.788292 1.45136,-3.590702 2.20279,-5.375658 1.36614,-3.171727 2.99448,-6.216872 4.62413,-9.257837 0.97938,-1.84367 1.80683,-3.77458 2.89185,-5.560086 0.56009,-1.046158 1.28566,-1.980179 1.98741,-2.930549 0.10297,-0.119018 0.45519,-0.555295 0.62045,-0.642528 0.0875,-0.04616 0.39299,-0.04131 0.29414,-0.03867 -1.19184,0.03178 -2.39389,-0.03964 -3.57456,0.126156 -0.17255,0.02424 0.29667,0.189815 0.41522,0.317502 0.20324,0.218919 0.36139,0.475748 0.54208,0.713621 1.50444,2.631649 2.5573,5.496394 3.70179,8.296924 0.85106,2.259242 1.99601,4.368559 3.27031,6.410306 0.57102,0.909812 1.14661,1.818161 1.66807,2.757614 0.39036,0.611802 0.61294,1.299269 0.84882,1.979544 1.39752,0.01847 2.81802,0.308428 4.19258,0.05542 0.34707,-0.06388 0.34861,-0.613727 0.51918,-0.922676 0.66363,-1.202042 1.08021,-2.022858 1.81029,-3.238145 1.27201,-2.117384 1.62928,-2.567139 3.07451,-4.677508 1.95394,-2.722076 3.81567,-5.512472 5.87252,-8.15989 0.6567,-0.845259 1.35204,-1.659776 2.02807,-2.489663 0,0 -3.09256,-0.208365 -3.09256,-0.208365 v 0 c -2.72555,3.49899 -5.36761,7.058033 -7.94954,10.664521 -1.55483,2.137352 -1.89731,2.565342 -3.3256,4.684432 -0.40649,0.603104 -0.78999,1.22147 -1.19455,1.825873 -0.30599,0.457134 -0.59399,0.928421 -0.93696,1.358504 -0.20348,0.255156 -1.00544,0.585943 -0.69574,0.688855 1.14262,0.379675 2.40102,0.184465 3.60152,0.276699 -0.28201,-0.679371 -0.42736,-1.415801 -0.84135,-2.03541 -0.53645,-0.972741 -1.26899,-1.824996 -1.84827,-2.771924 -0.36192,-0.555085 -0.74004,-1.099793 -1.08939,-1.662866 -0.92079,-1.484082 -1.66565,-3.071373 -2.3486,-4.675981 -1.18216,-2.787621 -2.25726,-5.622274 -3.51926,-8.374806 -0.15009,-0.263983 -0.28662,-0.536157 -0.45028,-0.791946 -0.10967,-0.171405 -0.16636,-0.460147 -0.36807,-0.487026 -3.1995,-0.426363 -3.7276,-0.961004 -5.07964,0.772893 -0.7167,0.939675 -1.34503,1.936559 -1.90333,2.978914 -1.02087,1.803832 -1.7802,3.744558 -2.72775,5.587188 -1.54956,3.073956 -3.05116,6.171888 -4.52906,9.280877 -0.86189,1.762627 -1.67888,3.565829 -2.61614,5.286369 -1.15897,0.978292 -0.12151,0.04053 3.68307,0.109048 0.043,7.94e-4 -0.0379,0.08786 -0.0783,0.102677 -0.15859,0.05815 -0.33196,-0.304347 -0.393,-0.36594 -0.46551,-0.816655 -0.93453,-1.630725 -1.42161,-2.434976 -0.80481,-1.373918 -1.52468,-2.797543 -2.38226,-4.141166 -1.14554,-1.807384 -2.20115,-3.667257 -3.20353,-5.55789 -1.5114,-2.610133 -3.42351,-4.943618 -5.54171,-7.088468 -1.47986,-1.468797 -1.44667,-1.455174 -2.98529,-2.902765 -1.36981,-1.288774 -2.80585,-2.516931 -4.10149,-3.882607 -0.24416,-0.25736 -0.46687,-0.534249 -0.70031,-0.801372 0,0 -3.86518,0.304197 -3.86518,0.304197 z"
       transform="matrix(1,0,0,-1,-67.743706,76.661077)" />
    <ellipse
       style="fill:#ff6600;stroke:#ff6600;stroke-width:3.62479;stop-color:#000000;filter:url(#filter1133)"
       id="path843"
       cx="84.607491"
       cy="40.819401"
       rx="44.786301"
       ry="11.745732" />
    <path
       style="fill:#0000ff;stroke:#00eaff;stroke-width:3.62479;stroke-opacity:1;filter:url(#filter1705-3);stop-color:#000000"
       id="path1471-6"
       d="m 45.060057,-1.198208 c 3.670729,2.668868 6.793071,5.989923 9.914408,9.260528 3.100099,3.190393 6.094109,6.48046 9.004343,9.844264 1.927534,2.21216 3.852433,4.42748 5.805238,6.61738 0.480783,0.410139 0.874073,1.168969 1.35681,1.574642 0.1065,0.0895 0.226888,0.209208 0.365757,0.200985 1.439434,-0.08524 2.916635,-0.06855 4.299461,-0.477242 0.331729,-0.09804 0.307351,-0.61981 0.461026,-0.929717 1.396166,-3.570981 1.90418,-7.389188 2.524495,-11.148626 0.09293,-0.616093 0.182909,-1.232638 0.278784,-1.848281 0.08307,-0.533424 0.173781,-1.065636 0.258043,-1.598875 0.203803,-1.28973 0.334274,-2.614863 0.833935,-3.830529 1.148209,-0.518668 2.370685,-1.030687 -3.16111,0.06728 -0.248084,0.04924 0.459595,0.215911 0.669655,0.35678 1.164389,0.780844 2.186387,1.825858 3.218678,2.764017 1.043051,0.986846 2.087179,1.974276 3.185967,2.899572 0.40382,0.340058 0.972391,0.816623 1.448638,1.078195 0.211736,0.116293 0.444717,0.18881 0.667076,0.283216 1.502823,-0.02561 3.016401,0.10447 4.508468,-0.07681 0.380005,-0.04617 1.854681,-1.435465 1.959835,-1.535859 1.837605,-1.75446 3.516251,-3.682002 5.22799,-5.555929 0.7202,-0.793726 1.44041,-1.587455 2.160616,-2.381181 0,0 -3.081066,-0.229296 -3.081066,-0.229296 v 0 c -0.73523,0.791178 -1.47045,1.582356 -2.205677,2.373534 -1.833129,1.881307 -3.642572,3.80696 -5.680326,5.473666 -0.382612,0.312941 -0.770681,0.623443 -1.19149,0.882758 -0.295667,0.1822 -1.281174,0.341114 -0.946783,0.434912 0.971561,0.272526 2.015715,0.09842 3.023571,0.147635 -0.230156,-0.06624 -0.470895,-0.103077 -0.690464,-0.198724 C 88.800206,13.04285 88.106929,12.530146 87.716197,12.23331 86.555227,11.351318 85.464572,10.380687 84.42055,9.363885 84.030186,8.991095 83.637598,8.620628 83.249462,8.24552 81.797336,6.842139 78.573285,3.020351 76.316352,6.347669 c -0.561903,2.404036 -0.523412,4.915845 -0.94978,7.343519 -0.546806,3.748748 -1.115348,7.570906 -2.816902,11.001247 -0.18958,0.265306 -0.873104,0.678921 -0.568738,0.795917 1.058563,0.406908 2.262142,0.169664 3.389971,0.288558 0.127596,0.01344 -0.266843,0.08095 -0.383865,0.02834 -0.165735,-0.0745 -0.265914,-0.247894 -0.393134,-0.377637 C 74.21501,25.041199 73.865112,24.626989 73.479725,24.24673 71.409236,22.106325 69.405843,19.900604 67.447781,17.65707 64.466345,14.276801 61.338028,11.030602 58.17721,7.818266 55.157189,4.634644 52.147567,1.434955 48.909133,-1.530307 c 0,0 -3.849076,0.3321 -3.849076,0.332099 z"
       transform="matrix(1,0,0,-1,4.122594,27.576762)" />
    <path
       style="fill:#000000;stroke:#00eaff;stroke-width:3.62479;stroke-opacity:1;stop-color:#000000"
       id="path1767"
       d="m 22.218293,125.17146 c 1.158353,0.0939 2.320493,0.12451 3.481979,0.1492 1.390436,0.0354 2.767471,0.24456 4.146492,0.40765 0.914149,0.11315 1.832563,0.18039 2.752836,0.21254 0.493062,-0.009 0.980806,0.0619 1.469084,0.11779 1.119782,0.11872 2.239629,0.0392 3.370294,0.0192 0.09351,-0.002 0.150034,-0.0523 0.223546,-0.0992 0.247206,-0.13139 0.39402,-0.41329 0.522579,-0.65312 0.21391,-0.37217 0.368689,-0.77589 0.531103,-1.17251 0.154334,-0.47969 0.376095,-0.93161 0.573844,-1.39335 0.180446,-0.31621 0.310505,-1.01377 0.62342,-1.22752 0.04414,-0.0302 0.102446,-0.0306 0.153667,-0.0459 1.056322,0.15498 -0.308536,-0.0554 -2.314334,0.0604 -0.116816,0.007 0.228385,0.0532 0.338719,0.0922 0.141425,0.0499 0.277908,0.11303 0.41496,0.17395 0.382158,0.16987 0.541758,0.25765 0.920686,0.45045 0.876427,0.49758 1.734534,1.03543 2.527356,1.65876 1.090321,1.12534 2.013566,2.40146 2.991921,3.62302 1.445347,1.7457 2.771725,3.58205 4.090006,5.42394 1.63409,2.41887 3.324365,4.79881 5.03614,7.16318 1.467784,2.00841 2.896753,4.04528 4.31487,6.08901 0.910754,1.36848 1.809951,2.74464 2.707619,4.12173 0.303048,0.39278 0.606173,1.09723 1.110337,1.28512 0.0964,0.0359 0.201623,0.0411 0.302434,0.0616 1.039686,-0.0504 2.085261,-0.0297 3.119057,-0.15116 0.11534,-0.0136 1.075433,-0.63059 1.103939,-0.64927 0.761839,-0.49936 1.447631,-1.07321 2.142993,-1.65964 0.927555,-0.86302 1.817497,-1.7841 2.529284,-2.83773 0.454065,-0.67214 0.659054,-1.103 1.046904,-1.82769 0.905917,-1.9742 1.999123,-3.84692 3.175203,-5.66941 0.283433,-0.36128 0.513776,-0.81353 0.889503,-1.098 0.07619,-0.0577 0.161457,-0.1069 0.25263,-0.13552 0.09341,-0.0293 0.194386,-0.0236 0.291578,-0.0353 -0.775896,0.0164 -1.551789,0.0327 -2.327685,0.0491 0.161777,0.0359 0.329224,0.0522 0.485331,0.10776 1.369118,0.48769 2.635088,1.75739 3.640391,2.75459 1.662483,1.73459 3.177093,3.59662 4.643501,5.49711 1.088305,1.40541 1.940285,2.97011 2.936394,4.43772 0.614981,0.82015 1.206484,1.68105 2.006118,2.33454 1.052748,0.69538 2.782491,0.76477 3.7133,-0.12692 0.186796,-0.17894 0.344636,-0.38611 0.507463,-0.58711 0.584073,-0.72099 0.82446,-1.09152 1.38213,-1.87962 1.952686,-2.93866 3.806145,-5.94413 5.563645,-9.0034 1.86338,-3.48233 3.69393,-6.98116 5.60479,-10.4381 1.36177,-2.46721 2.98481,-4.77173 4.54274,-7.11503 0.84837,-1.18828 1.54771,-2.47346 2.3496,-3.69072 0.36868,-0.58064 0.74975,-1.16277 1.20298,-1.68224 0.04,-0.0315 0.0733,-0.0743 0.12009,-0.0944 0.0372,-0.016 0.0807,-0.006 0.12105,-0.009 -0.862,0.0198 -1.72467,0.0204 -2.58602,0.0595 -0.0877,0.004 0.17635,0.0177 0.25942,0.0463 0.31454,0.10808 0.51491,0.27723 0.79414,0.4657 1.38497,1.17701 2.48265,2.64864 3.47724,4.15897 0.59683,0.88168 1.03602,1.87574 1.7511,2.6729 1.23573,1.0459 3.19643,0.4192 4.62057,-0.0274 1.306,-0.42849 2.64185,-0.75416 3.95648,-1.15313 1.65418,-0.50501 3.30952,-0.98714 5.00857,-1.31585 0.86637,-0.20936 1.79534,-0.25363 2.60652,-0.648 0.0659,-0.0688 0.14571,-0.12669 0.19776,-0.20654 0.36135,-0.5544 0.35843,-1.76615 0.33927,-2.40279 -0.15742,-1.28668 -0.80046,-2.44458 -1.41811,-3.56357 -0.86085,-1.37475 -0.57206,-1.32907 -3.22214,-0.57695 -0.17726,0.0503 0.30294,0.21015 0.44848,0.32316 0.26424,0.20515 0.52028,0.42065 0.78042,0.63098 0.31076,0.26874 0.62594,0.53246 0.93226,0.80624 0.3527,0.31522 0.69639,0.64037 1.04458,0.96055 0.39117,0.35545 0.77926,0.7143 1.17349,1.06634 1.16034,1.03615 2.34273,2.04351 3.54418,3.03136 0.71411,0.59976 1.49656,1.11768 2.1918,1.74068 0.11884,0.1065 0.27518,0.19152 0.33945,0.33758 0.1206,0.27405 -0.48627,0.43594 -0.88082,0.62835 -3.42728,1.42296 -6.95386,2.59326 -10.33937,4.11953 -0.84914,0.38281 -1.67737,0.81038 -2.51606,1.21558 0,0 2.04068,0.22774 2.04068,0.22774 v 0 c 0.80057,-0.40572 1.58747,-0.83962 2.40172,-1.21715 3.54007,-1.64137 7.26581,-2.79132 10.94155,-4.07637 0.33131,-0.20403 0.7297,-0.32647 0.99393,-0.6121 0.11473,-0.12402 0.10501,-0.34946 0.0397,-0.50531 -0.069,-0.16476 -0.26087,-0.24461 -0.40043,-0.35609 -0.76804,-0.61354 -1.62217,-1.11202 -2.39487,-1.71941 -1.23221,-0.96295 -2.42973,-1.95151 -3.5816,-3.01066 -1.10626,-1.0172 -1.07466,-1.03436 -2.11624,-2.03862 -0.28457,-0.27437 -0.57465,-0.54299 -0.86197,-0.81448 -0.21899,-0.2146 -0.44128,-0.42589 -0.65698,-0.64381 -0.11777,-0.11897 -0.1762,-0.35508 -0.34321,-0.36664 -4.04535,-0.27988 -3.14327,-0.34731 -2.22982,0.98959 0.63999,1.05917 1.27243,2.18213 1.4204,3.42932 0.007,0.56128 0.008,1.72494 -0.42217,2.15935 -0.0534,0.054 -0.12653,0.0842 -0.18979,0.12624 -0.78918,0.31298 -1.64229,0.41155 -2.46369,0.60775 -1.68743,0.36698 -3.33845,0.86291 -4.99719,1.34033 -1.34359,0.39231 -2.7022,0.73104 -4.04065,1.14164 -0.28062,0.0778 -0.60483,0.17644 -0.89485,0.22567 -0.11002,0.0187 -0.44459,0.0302 -0.33305,0.034 0.81893,0.0277 1.63861,0.0252 2.45792,0.0379 -0.0773,-0.007 -0.15813,0.003 -0.2319,-0.021 -0.0753,-0.0246 -0.13611,-0.0811 -0.20416,-0.1216 -0.82081,-0.71334 -1.28665,-1.7315 -1.90351,-2.60883 -1.02838,-1.49491 -2.1347,-2.94446 -3.39634,-4.25172 -1.07901,-0.92402 -2.82813,-1.93916 -4.15022,-0.40683 -0.39596,0.55554 -0.75681,1.13545 -1.11307,1.71691 -0.73732,1.22827 -1.39402,2.50559 -2.19553,3.69584 -1.48675,2.34983 -2.98658,4.69284 -4.30245,7.1452 -0.93154,1.69017 -1.84956,3.38749 -2.7471,5.09604 -0.316276,0.60207 -1.530634,2.96639 -1.845274,3.5519 -0.322262,0.59969 -0.659741,1.19108 -0.98961,1.78663 -1.790803,3.06698 -3.694343,6.06987 -5.753746,8.96433 -0.550328,0.69518 -1.348533,1.83564 -2.109202,2.33778 -0.138523,0.0914 -0.628386,0.15969 -0.463804,0.1812 3.438771,0.44961 3.051783,0.32852 2.16077,-0.0257 -0.876742,-0.56408 -1.496261,-1.42778 -2.134622,-2.23468 -1.040524,-1.46067 -1.89602,-3.04777 -3.025624,-4.44693 -1.504632,-1.88473 -3.023849,-3.75656 -4.669083,-5.52196 -1.023133,-1.09071 -2.099855,-2.22743 -3.460462,-2.90646 -0.147283,-0.0735 -0.308226,-0.11565 -0.462341,-0.17347 -1.132387,0.001 -2.422329,-0.45149 -3.39472,0.12883 -0.4908,0.2929 -0.707142,0.91737 -1.018823,1.35847 -1.065425,1.87355 -2.098265,3.7635 -3.077179,5.68415 -0.460779,0.79556 -0.587592,1.05672 -1.102203,1.79046 -0.7185,1.02444 -1.569966,1.95005 -2.506285,2.77843 -0.713398,0.58056 -1.419979,1.14124 -2.213358,1.61087 -0.207246,0.12267 -0.416735,0.24238 -0.633196,0.34795 -0.176202,0.0859 -0.736041,0.19113 -0.543078,0.22574 0.752358,0.13498 1.527614,0.0586 2.291424,0.0879 -0.170146,0.0135 -0.339604,0.0525 -0.50427,-0.0234 -0.404246,-0.18626 -0.686906,-0.75207 -0.957558,-1.0708 -0.964341,-1.36745 -1.961462,-2.71227 -2.875693,-4.11458 -1.431153,-2.05333 -2.907366,-4.07489 -4.391276,-6.09029 -1.730153,-2.33719 -3.435001,-4.69697 -4.979816,-7.16221 -1.286629,-1.85536 -2.616218,-3.68229 -4.032456,-5.44143 -0.954397,-1.22577 -1.8434,-2.50286 -2.840794,-3.69414 -0.79301,-0.65136 -1.677332,-1.17553 -2.552407,-1.70832 -1.513493,-0.82505 -2.849578,-1.61522 -4.795924,-0.766 -0.402598,0.38672 -0.51103,0.94963 -0.753939,1.43735 -0.216029,0.45943 -0.436565,0.91707 -0.595212,1.40071 -0.161686,0.38711 -0.321857,0.77785 -0.548751,1.13246 -0.136575,0.2085 -0.270666,0.40042 -0.522525,0.46864 -0.934194,0.12659 -2.159945,0.0279 2.433523,0.0295 0.04993,1e-5 -0.09981,-0.003 -0.149701,-0.005 -0.160292,-0.006 -0.178437,-0.009 -0.342241,-0.0192 -0.506415,-0.0441 -1.009335,-0.1398 -1.519023,-0.13058 -0.948804,-0.0188 -1.896721,-0.07 -2.84021,-0.1757 -1.380662,-0.15363 -2.755698,-0.37413 -4.145309,-0.43302 -1.120118,-0.0211 -2.241985,-0.0426 -3.358116,-0.14636 0,0 -2.738743,0.40595 -2.738743,0.40595 z" />
    <path
       style="fill:#00ffff;stroke:#00ffff;stroke-width:3.62479;stroke-opacity:1;stop-color:#000000;filter:url(#filter2067)"
       id="path1773"
       d="m 133.66539,93.42979 c 1.2353,0.137959 2.47898,0.182025 3.72072,0.217522 2.23344,-0.02283 4.56682,0.378034 6.72883,-0.325851 0.60486,-0.196921 0.90223,-0.385892 1.46208,-0.68273 1.38095,-0.891601 2.52552,-2.076445 3.80275,-3.101137 1.16445,-0.997489 2.03451,-2.272974 3.10101,-3.3617 -0.49148,-0.524751 1.01646,-0.19521 0.75831,-0.172006 -1.16758,0.104942 -2.366,-0.07087 -3.5126,0.173223 -0.19976,0.04252 0.26275,0.317005 0.35587,0.498785 0.34504,0.673584 0.41741,1.241898 0.59024,1.989074 0.47115,2.756849 0.43476,5.560925 0.53267,8.346376 0.039,2.169057 0.59709,4.270244 1.12788,6.358474 0.36649,1.48122 0.84605,2.92901 1.45117,4.32915 0.21064,0.40161 0.32566,0.88853 0.6224,1.24456 0.94831,1.13778 2.97663,0.26886 4.44307,0.0606 0.19838,-0.0282 0.22743,-0.32996 0.34114,-0.49495 0.11766,-0.25132 0.25649,-0.49378 0.35299,-0.75396 0.30547,-0.82357 0.42718,-1.52396 0.56717,-2.401 0.25574,-1.60222 0.31501,-3.20289 0.38218,-4.82113 0.0198,-2.43861 0.057,-4.838532 0.34093,-7.261826 0.20177,-2.077784 0.84438,-4.071266 1.37589,-6.080086 0.22992,-0.861875 0.47011,-1.727038 0.79736,-2.558407 0.0211,-0.05364 0.34017,-0.91436 0.56065,-0.969494 0.13216,-0.03305 0.24237,0.124473 0.36356,0.186711 -1.1235,0.110564 -2.32987,-0.106013 -3.37048,0.33169 -0.31356,0.131887 0.40866,0.546883 0.57082,0.845902 0.22373,0.412528 0.41275,0.844174 0.58295,1.281515 0.68506,1.760307 1.09201,3.622934 1.5494,5.450022 0.65334,3.18317 1.5734,6.291384 2.6673,9.347593 0.44287,1.00807 0.71237,2.1144 1.23815,3.0875 0.0615,0.11381 0.0918,0.30859 0.22076,0.31918 1.38632,0.11378 2.78182,0.0276 4.17272,0.0414 0.76434,-1.95499 0.87628,-4.06248 1.08512,-6.127628 0.19216,-2.34683 0.35141,-4.689877 0.79579,-7.004629 0.40966,-1.820548 0.92518,-3.614589 1.39001,-5.421368 0.29261,-1.159007 0.53027,-2.330857 0.81964,-3.490582 0.0172,-0.06673 0.21007,-0.839602 0.25902,-0.94816 0.0231,-0.05123 0.0801,-0.07882 0.12021,-0.118232 -1.29814,0.041 -2.61209,-0.08312 -3.89442,0.122994 -0.16615,0.02671 0.1195,0.314912 0.16867,0.475858 0.0943,0.308767 0.17436,0.621713 0.26155,0.932569 0.68256,2.690419 1.16754,5.425255 1.73682,8.140605 0.16745,0.648089 0.26758,1.469123 0.7945,1.959954 0.27003,0.251531 0.64101,0.372338 1.00536,0.362858 1.46928,-0.03823 2.93612,-0.142113 4.40419,-0.213167 1.687,-0.916752 2.15637,-2.036916 2.58199,-3.831148 0.33511,-1.969985 0.31765,-3.973727 0.46309,-5.96101 0.0535,-0.140491 0.0462,-0.32372 0.16044,-0.421479 0.0763,-0.06535 0.40062,0.02154 0.30027,0.0271 -1.14145,0.06315 -2.29141,0.0099 -3.42649,0.145862 -0.18112,0.0217 0.34532,0.121015 0.50786,0.203788 0.47281,0.24077 0.6761,0.437176 1.09695,0.76926 1.35314,1.247497 2.26287,2.84231 2.97253,4.519363 0.37036,1.088369 0.72412,2.241598 0.68262,3.407262 -0.008,0.228402 -0.0485,0.454509 -0.0728,0.681765 -0.33544,1.695808 -1.26637,2.795987 -2.58776,3.835152 -1.00467,0.795266 -2.14355,1.387467 -3.2715,1.984279 -0.0984,0.0467 -0.68447,0.334225 -0.81942,0.364218 -0.11952,0.02657 -0.4896,0.01143 -0.36718,0.0094 1.17105,-0.01937 2.34527,0.0275 3.51309,-0.06145 0.14739,-0.01122 -0.28524,-0.09188 -0.40741,-0.175104 -0.15923,-0.108466 -0.28325,-0.261236 -0.42488,-0.391856 -0.57145,-0.752493 -1.26649,-1.511665 -1.55164,-2.436518 -0.0529,-0.171683 -0.0745,-0.351518 -0.11168,-0.527275 0.0512,-1.470589 0.77471,-2.830272 1.62065,-4.000625 0,0 -3.8145,-0.226033 -3.8145,-0.226033 v 0 c -0.8139,1.302478 -1.56576,2.740406 -1.65133,4.299336 0.0888,0.512821 0.0775,0.659363 0.29761,1.127646 0.35066,0.746035 0.93363,1.367817 1.38497,2.04895 0.0638,0.08035 0.58212,0.804354 0.78914,0.821978 2.59474,0.220871 3.59377,0.551974 5.37574,-0.438428 1.1185,-0.61404 2.23418,-1.247717 3.21961,-2.06544 1.26531,-1.103956 2.29323,-2.438176 2.61223,-4.127096 0.027,-0.245242 0.0708,-0.489212 0.081,-0.735721 0.0509,-1.223457 -0.32519,-2.415397 -0.74593,-3.54616 -0.73739,-1.705285 -1.64297,-3.34205 -2.93259,-4.698558 -0.21238,-0.190574 -1.26398,-1.137121 -1.55052,-1.15868 -1.43325,-0.107841 -2.87609,-0.142068 -4.31139,-0.06632 -0.13824,0.0073 -0.22127,0.182256 -0.27798,0.308541 -0.0704,0.156729 -0.059,0.338498 -0.0885,0.507746 -0.0129,1.965598 0.007,3.94819 -0.40512,5.881399 -0.46595,1.656141 -0.96246,2.747357 -2.64123,3.429411 1.06975,0.03993 2.14078,0.05399 3.20926,0.119806 0.50242,0.03095 -0.65915,0.1241 -0.97128,-0.04476 -0.60566,-0.327676 -0.74362,-1.213321 -0.94849,-1.774764 -0.71688,-2.677348 -1.26912,-5.395204 -1.6941,-8.134059 -0.048,-0.311177 -0.10262,-0.621406 -0.14402,-0.933532 -0.0258,-0.194189 0.1356,-0.55136 -0.0574,-0.584859 -4.27873,-0.742672 -3.77915,-1.125892 -4.29239,1.039812 -0.28589,1.157444 -0.54444,2.319706 -0.75443,3.493408 -0.42253,1.819685 -0.93305,3.617351 -1.3263,5.443675 -0.42001,2.325888 -0.49988,4.684318 -0.72103,7.034493 -0.17133,1.53806 -0.31886,3.927733 -1.05247,5.305003 -0.0699,0.13131 -0.19097,0.22816 -0.28647,0.34224 1.20504,0.0604 2.40859,0.18932 3.61511,0.18117 0.11424,-8e-4 -0.20436,-0.11442 -0.27557,-0.20375 -0.12027,-0.15086 -0.19917,-0.33083 -0.28737,-0.50243 -0.4231,-0.8232 -0.77668,-1.68398 -1.1348,-2.53624 -1.20134,-3.023244 -2.24222,-6.101512 -2.89334,-9.296771 -0.24467,-1.05297 -0.63669,-2.7725 -0.91174,-3.831921 -0.25843,-0.995407 -0.54185,-2.059501 -0.94125,-3.015289 -0.13487,-0.322736 -0.14226,-0.825582 -0.47411,-0.936128 -1.37285,-0.457322 -2.86126,-0.434343 -4.2919,-0.651513 -0.12568,0.0646 -0.27851,0.0925 -0.37704,0.193787 -0.16102,0.165526 -0.42035,0.935765 -0.46747,1.073507 -0.29039,0.848786 -0.51357,1.718402 -0.73993,2.585733 -0.52445,2.029965 -1.15087,4.04123 -1.3842,6.133094 -0.26836,2.443092 -0.15153,4.837404 -0.15739,7.290061 -0.0829,2.24503 -0.16845,4.99045 -1.17988,7.04727 -0.11563,0.23513 -0.28066,0.44256 -0.421,0.66384 -1.30676,1.1074 -0.52984,0.29944 3.20762,0.45658 0.0834,0.004 -0.17624,0.0519 -0.24997,0.0129 -0.31487,-0.16681 -0.52088,-0.89622 -0.69625,-1.16362 -0.64894,-1.3668 -1.14586,-2.79893 -1.52984,-4.2623 -0.55618,-2.06149 -1.17462,-4.12621 -1.24394,-6.276958 -0.12553,-2.80195 -0.14859,-5.614125 -0.50153,-8.400761 -0.12351,-0.81751 -0.1564,-1.365184 -0.4349,-2.1247 -0.0801,-0.218347 -0.084,-0.571732 -0.31039,-0.624837 -1.37379,-0.322223 -2.80254,-0.34566 -4.21075,-0.435594 -0.12912,-0.0083 -0.25331,0.07133 -0.36059,0.143642 -0.13412,0.0904 -0.23362,0.223745 -0.35042,0.335619 -0.99161,1.129347 -1.89747,2.345915 -3.05976,3.312832 -1.23872,1.035193 -2.38339,2.201894 -3.78794,3.018605 -0.72582,0.343712 -1.4053,0.615936 -2.204,0.743452 -0.2525,0.04031 -1.01756,0.07464 -0.76215,0.08685 0.76498,0.03659 4.60977,0.03388 2.29755,0.0092 -1.19501,-0.02887 -2.3925,-0.06055 -3.58137,-0.192939 0,0 -3.90465,0.561605 -3.90465,0.561605 z" />
    <path
       style="fill:#ff0000;stroke:#ff0000;stroke-width:0.825;stroke-miterlimit:4;stroke-dasharray:none;stroke-opacity:1;stop-color:#000000;filter:url(#filter2191)"
       id="path2077"
       d="m 175.62888,80.748446 c 0.40526,0.619971 0.63265,1.315556 0.81486,2.027039 0.26939,0.980638 0.48562,1.974826 0.7202,2.964145 0.19845,0.758809 0.24214,1.552803 0.47188,2.303264 0.20001,0.453144 0.6151,0.709938 1.02857,0.947132 0.79334,0.354081 1.64968,0.538705 2.49567,0.719968 0.29955,0.06459 0.59668,0.139737 0.89599,0.205383 0.0617,0.01355 0.31201,0.06997 0.38702,0.0692 0.69885,-0.0072 1.39741,-0.03246 2.09611,-0.04869 0.44361,-0.613934 0.31635,-1.410214 0.21147,-2.110473 -0.21247,-0.901266 -0.54723,-1.765147 -0.76589,-2.664944 -0.0385,-0.174678 -0.22118,-0.978482 -0.0435,-1.114603 0.0318,-0.02434 0.08,-0.0019 0.12007,-0.0029 -0.56726,0.02244 -1.13935,-0.0099 -1.70176,0.06731 -0.1417,0.01947 0.28078,0.05975 0.4149,0.109453 0.74843,0.277386 1.49578,0.759836 2.18839,1.158401 0.4802,0.285451 1.00503,0.533892 1.39742,0.943499 0.22714,0.237091 0.29973,0.384805 0.47851,0.666388 0.34065,0.631999 0.62615,1.319546 0.70602,2.040234 0.0148,0.133646 0.0108,0.268713 0.0162,0.403068 -0.0261,0.990095 -0.44934,1.901148 -0.88959,2.76882 -0.87639,1.457894 -2.15341,2.579762 -3.4838,3.60956 -0.85156,0.615693 -1.76876,1.150125 -2.74308,1.547693 -0.39319,0.160441 -0.79827,0.290094 -1.2004,0.425363 -0.44771,0.14307 -0.56422,0.185449 -1.00226,0.306845 -0.13043,0.03615 -0.25867,0.08512 -0.3929,0.102444 -0.10651,0.01376 -0.4292,-0.0035 -0.32201,-0.01019 1.70025,-0.106449 2.03192,0.324348 1.46388,-0.25673 -0.0233,-0.09384 -0.065,-0.184949 -0.0699,-0.281517 -0.0293,-0.585703 0.36998,-1.190654 0.77469,-1.576213 0.12325,-0.117419 0.26716,-0.211044 0.40074,-0.316566 0.72965,-0.476334 1.54415,-0.80687 2.27401,-1.282962 0.13819,-0.09014 0.26885,-0.191322 0.40328,-0.286982 0.37628,-0.345806 0.90254,-0.78235 1.10691,-1.270413 0.027,-0.06453 0.0347,-0.135562 0.052,-0.203343 -0.0142,-0.07499 -0.0132,-0.154472 -0.0424,-0.224973 -0.26034,-0.628351 -1.42406,-0.705122 -1.96773,-0.775104 -1.86436,-0.144495 -3.72619,-0.0036 -5.56743,0.277312 -1.24302,0.107058 0.81402,0.04109 1.21519,-0.01519 0.0803,-0.01127 -0.1457,-0.07786 -0.20111,-0.137134 -0.20511,-0.219464 -0.24698,-0.546184 -0.30051,-0.825598 -0.0786,-0.631933 -0.0711,-1.269788 -0.094,-1.905052 0,0 -1.87261,0.0057 -1.87261,0.0057 v 0 c 0.016,0.645068 -0.0339,1.294564 0.0523,1.935361 0.042,0.222255 0.22336,1.146294 0.51264,1.183278 1.51676,0.193918 1.59061,0.161073 2.54057,0.02254 0.53803,-0.08698 1.07367,-0.160845 1.61663,-0.211476 0.22117,-0.02061 0.88096,-0.0082 0.66403,-0.05601 -0.34606,-0.07622 -0.70838,-0.02191 -1.0626,-0.03178 -0.23158,-0.0065 0.46311,0.01434 0.69466,0.02151 0.43522,0.04802 1.52488,0.128088 1.81809,0.557324 0.0259,0.03791 0.0283,0.08735 0.0424,0.131027 -0.13866,0.560049 -0.65718,0.97527 -1.06404,1.343461 -0.85982,0.595498 -1.80241,1.005176 -2.66898,1.585545 -0.1345,0.116443 -0.27931,0.221946 -0.40349,0.349332 -0.43455,0.445788 -0.83886,1.100055 -0.83279,1.745046 0.001,0.124942 0.0424,0.246266 0.0636,0.369401 0.0614,0.09516 0.0727,0.265427 0.18411,0.28548 0.7102,0.127788 1.4395,0.107161 2.16051,0.136401 0.1023,0.0042 0.20494,-0.01471 0.305,-0.03642 0.45673,-0.09907 0.88945,-0.302191 1.33786,-0.42845 0.38845,-0.139676 0.79911,-0.28048 1.17702,-0.445998 0.95473,-0.418152 1.85021,-0.969949 2.68205,-1.595032 1.34974,-1.060831 2.65666,-2.210597 3.5754,-3.680048 0.47563,-0.896887 0.92728,-1.827479 0.94985,-2.864003 -0.006,-0.142923 -0.002,-0.286565 -0.0178,-0.428768 -0.0813,-0.745294 -0.3822,-1.445342 -0.71562,-2.107869 -0.16831,-0.299376 -0.23958,-0.464656 -0.46343,-0.720916 -0.39255,-0.449381 -0.95004,-0.701227 -1.46303,-0.980955 -0.5487,-0.307602 -1.09618,-0.617382 -1.64529,-0.924267 -0.052,-0.02904 -0.71763,-0.422478 -0.86506,-0.430842 -0.72174,-0.04094 -1.44579,0.0076 -2.16869,0.01146 -0.0419,0.04842 -0.0957,0.08866 -0.12559,0.14527 -0.16313,0.309168 0.0357,0.911796 0.10425,1.222711 0.25163,0.885407 0.58935,1.744578 0.79317,2.643092 0.0665,0.46835 0.19085,1.333934 -0.15171,1.73963 -0.0325,0.0385 -0.0858,0.05288 -0.12867,0.07932 0.59144,0.0073 1.18287,0.01434 1.7743,0.02191 0.0618,7.93e-4 -0.12381,0.0044 -0.18528,-0.0016 -0.39279,-0.03858 -0.77311,-0.175527 -1.16125,-0.239165 -0.83145,-0.160911 -1.66672,-0.346014 -2.45324,-0.665903 -0.3797,-0.206796 -0.76461,-0.437986 -1.00181,-0.811141 -0.30658,-0.723567 -0.3526,-1.52526 -0.55514,-2.279309 -0.23685,-0.988396 -0.43519,-1.98583 -0.70401,-2.966233 -0.17201,-0.716227 -0.37649,-1.415343 -0.71323,-2.073603 0,0 -1.97098,0.09203 -1.97098,0.09203 z" />
    <path
       style="fill:#ffcc00;stroke:#ffcc00;stroke-width:0.825;stroke-miterlimit:4;stroke-dasharray:none;stroke-opacity:1;stop-color:#000000;filter:url(#filter2649)"
       id="path2455"
       d="m 156.40698,102.54757 c 0.0874,-0.59528 0.31394,-1.15789 0.51034,-1.72333 0.22542,-0.72797 0.39324,-1.471289 0.56873,-2.212239 0.18358,-0.725424 0.33041,-1.457494 0.46237,-2.193748 0.10999,-0.641662 0.20355,-1.285388 0.34013,-1.922134 0.13301,-0.634333 0.23265,-1.274887 0.29589,-1.91983 0.0486,-0.63921 0.0992,-1.278496 0.16673,-1.916044 0.0506,-0.580982 0.10716,-1.161423 0.1542,-1.742744 0.056,-0.61423 0.12756,-1.226468 0.17517,-1.841487 0.0498,-0.636651 0.12493,-1.270645 0.18676,-1.906026 0.0587,-0.641197 0.12729,-1.281256 0.19208,-1.921859 0.0568,-0.47071 0.12687,-0.938456 0.24164,-1.398622 0.095,-0.409925 0.23014,-0.808895 0.3566,-1.209829 0.11125,-0.270864 0.23779,-0.533683 0.37092,-0.794252 0.071,-0.09342 0.12934,-0.233686 0.24079,-0.288026 0.0621,-0.03029 0.13155,-0.04256 0.19758,-0.06303 0.33751,-0.07721 0.68474,-0.09555 1.02963,-0.10886 0.0498,-0.0011 0.0996,-0.0026 0.14937,-0.0034 0.0981,-0.0016 0.19976,-0.0021 0.29792,-0.0024 0.0461,-9.5e-5 0.18454,-1.87e-4 0.13841,5.6e-5 -1.27025,0.0067 -1.64362,-0.05723 -1.11929,0.02373 0.3012,0.06657 0.53223,0.257133 0.74999,0.464198 0.27232,0.305351 0.55035,0.606727 0.81423,0.919515 0.19549,0.24053 0.37599,0.491929 0.54499,0.751549 0.19567,0.326088 0.34926,0.675952 0.49972,1.024697 0.22475,0.499842 0.38306,1.025175 0.51886,1.555062 0.15196,0.5086 0.20528,1.034748 0.26506,1.559467 0.0623,0.535361 0.0887,1.074055 0.10395,1.612537 0.0186,0.689116 0.0205,1.378533 0.019,2.067857 -0.0315,0.68426 -0.0475,1.369769 -0.0948,2.053185 -0.0565,0.635077 -0.0736,1.272119 -0.0941,1.909056 -0.005,0.577853 -0.0433,1.154314 -0.07,1.73138 -0.0432,0.602224 -0.0113,1.202338 0.0465,1.801935 0.075,0.615121 0.17383,1.226788 0.29402,1.834628 0.0813,0.42037 0.24659,0.809612 0.45879,1.178574 0.23478,0.377894 0.43869,0.773424 0.63767,1.171054 0.21792,0.44223 0.40498,0.89858 0.61402,1.34493 0.0736,0.15293 0.13619,0.31068 0.2034,0.46643 0,0 1.37557,-0.0607 1.37557,-0.0607 v 0 c -0.0792,-0.15406 -0.14776,-0.31264 -0.22687,-0.4668 -0.22164,-0.44176 -0.40622,-0.90054 -0.62173,-1.34523 -0.19287,-0.40077 -0.39219,-0.79904 -0.61643,-1.1833 -0.21897,-0.352579 -0.39512,-0.725742 -0.48603,-1.133412 -0.14044,-0.599178 -0.23191,-1.207418 -0.29808,-1.819103 -0.0581,-0.592714 -0.0966,-1.187145 -0.0495,-1.782595 0.0289,-0.578036 0.0792,-1.155425 0.0688,-1.734667 0.009,-0.635466 0.0412,-1.270029 0.0891,-1.903777 0.0396,-0.686528 0.0564,-1.374482 0.0849,-2.061565 -0.001,-0.690327 0.003,-1.380659 5.3e-4,-2.07097 -0.01,-0.542857 -0.0292,-1.084993 -0.0975,-1.624304 -0.0578,-0.53181 -0.10909,-1.064556 -0.27193,-1.57771 -0.13408,-0.535403 -0.28797,-1.067269 -0.50412,-1.576062 -0.14761,-0.3546 -0.28731,-0.714087 -0.47351,-1.050841 -0.17552,-0.262887 -0.35546,-0.522663 -0.55788,-0.765955 -0.26183,-0.319191 -0.5654,-0.603023 -0.81656,-0.932014 -0.21518,-0.22534 -0.43758,-0.440017 -0.73982,-0.542435 -0.69606,-0.210503 -1.46973,-0.03125 -2.19445,-0.04074 -0.35028,0.02151 -0.70515,0.04554 -1.04247,0.149003 -0.24201,0.101166 -0.32924,0.224438 -0.4451,0.454874 -0.13185,0.266981 -0.26181,0.536189 -0.35969,0.817782 -0.12021,0.403699 -0.23964,0.808056 -0.3417,1.216758 -0.12119,0.466172 -0.17771,0.940332 -0.22083,1.419746 -0.0569,0.641419 -0.11889,1.28256 -0.19636,1.921828 -0.0588,0.63605 -0.11499,1.272228 -0.17362,1.908283 -0.0491,0.615895 -0.13761,1.226878 -0.19289,1.842159 -0.0372,0.580697 -0.10182,1.158938 -0.14355,1.739305 -0.059,0.638373 -0.11779,1.276799 -0.16363,1.916289 -0.0621,0.640022 -0.1638,1.275199 -0.29497,1.904744 -0.13668,0.637921 -0.23435,1.282054 -0.32824,1.927524 -0.12388,0.736129 -0.27891,1.463698 -0.46708,2.186342 -0.16696,0.737311 -0.32065,1.478953 -0.55799,2.197973 -0.2072,0.58054 -0.44179,1.15281 -0.59172,1.75196 0,0 1.38815,0.0156 1.38815,0.0156 z" />
    <path
       style="fill:#00ff00;stroke:#00ff00;stroke-width:0.825;stroke-miterlimit:4;stroke-dasharray:none;stroke-opacity:1;stop-color:#000000;filter:url(#filter2847)"
       id="path2653"
       d="m 149.82568,96.24888 c 0.20266,0.699553 0.45735,1.383133 0.68174,2.076043 0.27435,0.83821 0.47097,1.698057 0.70143,2.548637 0.22818,0.79351 0.49709,1.57324 0.79533,2.34283 0.28172,0.78575 0.63336,1.54132 1.0097,2.28516 0.33664,0.65003 0.62705,1.32217 0.9577,1.9751 0.2423,0.45376 0.45641,0.92956 0.77698,1.3351 0.44031,0.47371 1.07187,0.23413 1.75157,0.19661 0.11507,-0.006 0.58307,-0.42084 0.67228,-0.49464 0.65817,-0.5576 1.22787,-1.19944 1.76147,-1.87407 0.63057,-0.80128 1.01817,-1.74049 1.41065,-2.67142 0.4333,-0.99105 0.73472,-2.0306 1.01618,-3.07263 0.21047,-0.83631 0.47953,-1.65579 0.75273,-2.473189 0.19581,-0.586578 0.32606,-1.191479 0.45198,-1.795973 0.0947,-0.490945 0.17712,-0.981927 0.21853,-1.480524 0.0371,-0.620799 0.0205,-1.243258 0.0211,-1.864801 7e-5,-0.722255 -0.007,-1.444551 0.003,-2.166761 0.0247,-0.23274 -0.0132,-0.474186 0.0207,-0.706408 0.003,-0.02151 0.0488,-0.05972 0.027,-0.05935 -1.45986,0.02551 -1.57216,-0.305721 -1.26042,0.260829 0.40554,1.159758 0.45965,2.405742 0.53033,3.621664 0.0656,1.196226 0.026,2.392463 -0.0196,3.5882 -0.0382,0.986464 -0.13322,1.969169 -0.20759,2.953223 -0.0475,0.52547 -0.0558,1.05158 0.0623,1.56861 0.0628,0.27509 0.12835,0.44773 0.21786,0.71273 0.24201,0.68893 0.67597,1.27626 1.09233,1.86688 0.33415,0.47791 0.72108,0.9118 1.18144,1.26974 0.47926,0.3265 1.01765,0.55417 1.53126,0.82108 0.5743,0.26069 1.16007,0.66452 1.8163,0.67013 0.54728,0.005 1.0944,-0.0206 1.64159,-0.0309 0.10918,-0.0426 0.2253,-0.0705 0.32755,-0.12778 0.62148,-0.34825 1.10774,-1.27903 1.44838,-1.88325 0.0854,-0.16425 0.17181,-0.32797 0.2562,-0.49274 0.16199,-0.31628 0.35032,-0.68668 0.49136,-1.01269 0.20809,-0.48097 0.3767,-0.97934 0.55377,-1.47219 0.16755,-0.44032 0.31164,-0.88883 0.47098,-1.33201 0,0 -1.33589,-0.043 -1.33589,-0.043 v 0 c -0.13683,0.44492 -0.26861,0.89128 -0.41675,1.33268 -0.10346,0.31714 -0.2018,0.62963 -0.31941,0.94221 -0.26253,0.69774 -0.60651,1.35991 -0.96587,2.01193 -0.35907,0.61867 -0.80863,1.4764 -1.49175,1.78596 -0.103,0.0467 -0.2168,0.0644 -0.32519,0.0966 0.32256,0.011 0.64496,0.0295 0.9677,0.0329 0.11809,10e-4 -0.2367,-0.008 -0.35328,-0.0264 -0.52591,-0.0849 -0.99302,-0.35984 -1.46304,-0.59244 -0.49443,-0.27393 -1.00775,-0.51242 -1.49059,-0.80514 -0.47185,-0.33919 -0.87594,-0.75351 -1.21646,-1.22523 -0.41054,-0.58 -0.83347,-1.15995 -1.08622,-1.83051 -0.0967,-0.26771 -0.15764,-0.4121 -0.22258,-0.69202 -0.11713,-0.50489 -0.11846,-1.02245 -0.0822,-1.53683 0.0525,-0.986933 0.14395,-1.970874 0.20036,-2.95756 0.0283,-1.200386 -0.006,-2.399036 -0.0685,-3.59817 -0.0524,-1.226116 -0.1005,-2.461508 -0.37136,-3.663113 -0.15693,-0.690089 0.008,-0.323689 -1.48989,-0.235787 -0.0273,0.0016 0.003,0.05457 0.004,0.08186 0.0103,0.216369 0.009,0.180332 0.0151,0.42105 0.002,0.09512 0.004,0.190254 0.007,0.28538 0.011,0.722042 0.006,1.44422 0.005,2.166323 -0.003,0.61817 -0.0115,1.236777 -0.0534,1.853729 -0.0427,0.492898 -0.12046,0.979737 -0.21748,1.464874 -0.11884,0.597384 -0.21449,1.201394 -0.40526,1.781725 -0.26542,0.820976 -0.53805,1.640499 -0.73539,2.481379 -0.26751,1.03715 -0.54111,2.07533 -0.98541,3.05458 -0.40787,0.91813 -0.81348,1.84323 -1.44406,2.63612 -0.53688,0.67155 -1.11552,1.30981 -1.7954,1.84122 -0.14276,0.10772 -0.33586,0.2671 -0.50336,0.34448 -0.0651,0.0301 -0.27802,0.0537 -0.20659,0.0601 0.40017,0.0359 0.80331,0.0197 1.20497,0.0295 -0.0432,-0.01 -0.0898,-0.01 -0.12953,-0.029 -0.0399,-0.0195 -0.0685,-0.0565 -0.10278,-0.0848 -0.35302,-0.37996 -0.59056,-0.84297 -0.82963,-1.29975 -0.33117,-0.65373 -0.63224,-1.32144 -0.96322,-1.97529 -0.38116,-0.73899 -0.76033,-1.47916 -1.02433,-2.27084 -0.29267,-0.76654 -0.55741,-1.54348 -0.79218,-2.32977 -0.23349,-0.85313 -0.4425,-1.712758 -0.72031,-2.553252 -0.20853,-0.67799 -0.44945,-1.35263 -0.57307,-2.052318 0,0 -1.38771,0.0154 -1.38771,0.0154 z" />
    <path
       style="fill:#0000ff;stroke:#0000ff;stroke-width:0.825;stroke-miterlimit:4;stroke-dasharray:none;stroke-opacity:1;stop-color:#000000;filter:url(#filter2317)"
       id="path2195"
       d="m 135.91801,90.877849 c 0.90666,0.01558 1.80904,-0.04583 2.70712,-0.165944 0.76751,-0.07649 1.51132,-0.249909 2.23427,-0.514355 0.64671,-0.277 1.20707,-0.699863 1.72936,-1.163907 0.52488,-0.457777 1.01674,-0.95086 1.5053,-1.446602 0.35998,-0.390043 0.73194,-0.772401 1.05713,-1.192853 0.1658,-0.214373 0.29224,-0.405325 0.44575,-0.628816 0.45826,-0.668518 0.92258,-1.332463 1.34791,-2.0227 0.29831,-0.44954 0.52612,-0.943155 0.81665,-1.39664 0.0434,-0.04493 0.10256,-0.169432 0.18471,-0.169432 0.016,0 0.0589,0.02106 0.0429,0.0213 -1.32957,0.02024 -1.76966,-0.19913 -1.32218,0.01704 0.14458,0.25578 0.24582,0.534355 0.35328,0.807164 0.22829,0.506648 0.34578,1.043183 0.41691,1.591209 0.0335,0.394388 0.0874,0.786482 0.12132,1.180815 0.0261,0.341177 0.0176,0.683442 0.0255,1.025199 0.005,0.301474 0.0207,0.606044 -0.0298,0.905145 -0.0309,0.182883 -0.0711,0.287729 -0.12718,0.463743 -0.12341,0.427051 -0.33265,0.816867 -0.59053,1.176187 -0.3348,0.387842 -0.72292,0.723995 -1.08684,1.083728 -0.44754,0.458822 -0.86629,0.943848 -1.33364,1.382744 -0.37158,0.341151 -0.83314,0.525558 -1.30399,0.683191 -0.63212,0.19222 -1.28964,0.269571 -1.94323,0.348658 -0.69022,0.07643 -1.38466,0.09614 -2.07845,0.106695 -0.43237,-0.02617 -1.6735,0.07328 0.31628,-0.0053 0.10824,-0.0043 -0.2164,-0.01029 -0.32458,-0.01598 -0.37134,-0.01945 -0.24624,-0.01164 -0.60516,-0.04266 -0.51197,-0.0665 -1.02438,-0.144864 -1.52337,-0.279206 -0.34683,-0.115859 -0.69642,-0.244994 -1.0024,-0.448176 -0.23788,-0.189481 -0.32483,-0.455784 -0.36912,-0.744873 0.004,-0.09047 -0.0548,-0.249227 0.0175,-0.330586 0.0639,-0.07189 0.40174,-0.08914 0.46646,-0.09695 0.50372,-0.04284 1.01074,-0.03637 1.51326,-0.09664 0.39183,-0.04699 0.46884,-0.07456 0.85671,-0.161155 0.58696,-0.166409 0.29742,-0.079 0.86877,-0.261747 0,0 -1.28109,-0.162774 -1.28109,-0.162774 v 0 c -0.56594,0.177758 -0.2771,0.0943 -0.86682,0.249229 -0.41231,0.08278 -0.44787,0.100127 -0.86326,0.143524 -0.51827,0.05414 -1.04055,0.04513 -1.55869,0.09994 -0.15452,0.02932 -0.3078,0.03372 -0.43716,0.134959 -0.15505,0.121338 -0.10744,0.337756 -0.0912,0.502899 0.0486,0.323217 0.13756,0.618857 0.37832,0.85526 0.30651,0.228169 0.66866,0.360598 1.02495,0.492358 0.50565,0.147648 1.02869,0.221072 1.54858,0.300352 1.07605,0.105458 2.15893,0.08325 3.23902,0.07215 0.69157,-0.01368 1.38338,-0.03984 2.07079,-0.12192 0.66409,-0.08383 1.33322,-0.164098 1.97244,-0.372309 0.48215,-0.168013 0.94274,-0.376055 1.3109,-0.74169 0.45121,-0.450305 0.86152,-0.938811 1.31855,-1.383684 0.38282,-0.360008 0.79394,-0.695462 1.12311,-1.107718 0.25213,-0.376089 0.45838,-0.779798 0.58065,-1.217964 0.0592,-0.19526 0.0937,-0.28683 0.12789,-0.489244 0.0514,-0.304231 0.0404,-0.61368 0.0481,-0.920689 0.006,-0.345276 -0.007,-0.690475 -0.0228,-1.035373 -0.0279,-0.399293 -0.1125,-0.790313 -0.15261,-1.188291 -0.079,-0.553739 -0.18463,-1.103093 -0.40019,-1.622462 -0.10393,-0.281686 -0.19693,-0.567412 -0.31069,-0.845288 -0.27217,-0.630775 -1.42298,-0.403757 -1.67331,0.146246 -0.24571,0.466807 -0.45791,0.951629 -0.7436,1.397259 -0.42411,0.689795 -0.89792,1.34611 -1.35371,2.015027 -0.45154,0.640516 -0.93981,1.251754 -1.50395,1.798481 -0.49486,0.489961 -0.99306,0.977048 -1.51636,1.43687 -0.51992,0.449419 -1.07475,0.862939 -1.72056,1.114732 -0.71415,0.247113 -1.44636,0.411237 -2.19901,0.49135 -0.92464,0.119319 -1.854,0.170751 -2.78654,0.136358 0,0 1.35154,0.214064 1.35154,0.214064 z" />
    <path
       style="mix-blend-mode:normal;fill:#000000;stroke:#000000;stroke-width:0.835878;stroke-miterlimit:4;stroke-dasharray:none;stroke-opacity:1;stop-color:#000000"
       id="path1771-2"
       d="m 137.06851,91.710676 c 1.09619,0.01953 2.18678,-0.08763 3.27542,-0.200757 0.81579,-0.14086 1.68085,-0.04117 2.46297,-0.334204 0.79969,-0.347066 1.58709,-0.733016 2.24502,-1.31661 0.17607,-0.156158 0.33341,-0.332233 0.5001,-0.498349 1.1437,-1.20641 1.88898,-2.688816 2.58487,-4.17921 0.37824,-0.75557 0.56408,-1.611674 1.09057,-2.285167 0.12073,-0.124183 0.26438,-0.200528 0.43115,-0.242498 0.0445,-0.01123 0.18172,-0.02419 0.13576,-0.02391 -2.83948,0.01862 -3.56214,-0.158523 -2.55342,0.07266 0.55009,0.550423 0.94644,1.250086 1.36274,1.905132 0.41605,0.615504 0.75233,1.266525 0.98997,1.968954 0.25144,0.873975 0.39848,1.772195 0.57267,2.663386 0.16851,0.987908 0.3772,1.968515 0.53868,2.957592 0.12781,0.947519 0.22032,1.900149 0.2962,2.853217 0.0832,1.283083 0.16268,2.566513 0.29104,3.845967 0.0648,1.011674 0.19935,2.014411 0.34441,3.016831 0.0943,1.09184 0.26733,2.16742 0.47704,3.24212 0.12873,0.75875 0.27173,1.51671 0.51979,2.24652 0.49806,1.15927 1.13371,0.48849 3.13997,0.34576 0.11068,-0.008 0.61867,-1.01371 0.6608,-1.09666 0.70401,-1.39322 1.21038,-2.8771 1.70387,-4.35509 0.53274,-1.65767 0.86305,-3.369841 1.18531,-5.078066 0.31098,-1.564456 0.62635,-3.127835 0.88834,-4.701409 0.20364,-1.492785 0.423,-2.984839 0.56608,-4.48489 0.12475,-1.402474 0.32823,-2.799509 0.53377,-4.192645 0.13535,-0.7741 0.1751,-1.586947 0.48805,-2.317352 0.96549,0.305288 -0.54891,-0.184938 -2.58067,0.135794 -0.12592,0.01981 0.18933,0.172469 0.26825,0.272583 0.40541,0.51425 0.68304,1.129946 0.96936,1.712791 0.71724,1.53125 1.01386,3.195281 1.28144,4.850312 0.22827,1.615936 0.29805,3.248184 0.44782,4.872363 0.16158,1.275535 0.1833,2.561301 0.26847,3.84234 0.0708,1.057741 0.24051,2.105555 0.42679,3.148119 0.23555,0.95646 0.57671,1.88148 0.9076,2.80772 0.21432,0.55558 0.46874,1.0949 0.73243,1.62845 0.16259,0.29537 0.37377,0.54741 0.687,0.68058 3.06844,0.0687 2.77128,0.63085 3.81987,-1.31204 0.69815,-1.35247 1.03461,-2.85134 1.30763,-4.337687 0.2784,-1.746401 0.40701,-3.510021 0.52935,-5.272541 0.12675,-1.692737 0.25105,-3.385466 0.45297,-5.071103 0.22484,-1.555154 0.45573,-3.109305 0.74441,-4.654018 0.24331,-1.236796 0.51541,-2.465213 0.91042,-3.662969 0.21165,-0.708927 0.43087,-1.349004 0.83222,-1.969921 0.0333,-0.03751 0.0499,-0.109543 0.1,-0.1125 0.0448,-0.0027 0.13339,0.09869 0.0885,0.101355 -0.89347,0.05413 -1.80196,-0.0921 -2.68474,0.05595 -0.13704,0.023 0.14959,0.234712 0.21244,0.35864 0.19262,0.379816 0.34813,0.77734 0.52212,1.166037 0.63641,1.496427 1.14847,3.042426 1.60051,4.603332 0.25633,0.987361 0.46118,1.986607 0.7803,2.956305 0.17615,0.588615 0.3346,1.179237 0.6357,1.718369 0.23689,0.373399 0.58677,0.538713 1.00151,0.647516 0.82119,0.145341 1.65881,0.142804 2.48995,0.153648 1.75391,-0.02154 3.5184,0.125279 5.26628,-0.02538 0.43174,-0.04856 0.87476,-0.05696 1.2839,-0.221293 0.0521,-0.02099 0.40027,-0.204527 0.4626,-0.237131 0.59064,-0.44047 0.70515,-1.263778 0.84501,-1.939498 0.078,-1.096685 -0.22321,-2.158839 -0.57374,-3.185514 -0.52449,-1.385907 -0.42435,-0.922818 -3.1127,-0.362948 -0.10131,0.02108 0.0534,0.199972 0.0854,0.298324 0.0426,0.130947 0.0923,0.259502 0.13846,0.389254 0.38701,1.09349 0.76554,2.191142 1.06845,3.311239 0.11946,0.583567 0.32939,1.229302 0.1589,1.827245 -0.0298,0.104495 -0.0795,0.202235 -0.11924,0.303362 -0.67404,1.198213 -1.76205,2.125449 -2.80917,2.991438 -0.24474,0.182237 -0.48739,0.367321 -0.73421,0.546736 -0.68925,0.501015 -0.60684,0.430357 -1.27546,0.872059 -0.3805,0.251361 -0.74394,0.485881 -1.06808,0.80633 0,0 2.78271,0.217241 2.78271,0.217241 v 0 c 0.28438,-0.296643 0.61326,-0.524144 0.94615,-0.764752 0.65475,-0.473294 1.30958,-0.946533 1.94305,-1.448424 1.10573,-0.909319 2.27161,-1.8588 2.98499,-3.121783 0.0424,-0.119173 0.0959,-0.23494 0.12706,-0.357536 0.16478,-0.649414 -0.0646,-1.322204 -0.21718,-1.948032 -0.33691,-1.108086 -0.71766,-2.202269 -1.03134,-3.317565 -0.0326,-0.125936 -0.067,-0.251462 -0.098,-0.377817 -0.0167,-0.06818 0.0248,-0.201533 -0.0453,-0.205768 -0.94031,-0.05687 -1.88393,0.04162 -2.82592,0.03213 -0.0325,-2.74e-4 0.048,-0.07439 0.0771,-0.05979 0.0996,0.04975 0.2601,0.42791 0.2787,0.465544 0.37864,0.964925 0.69703,1.979067 0.59418,3.028506 -0.15233,0.620352 -0.29921,1.357804 -0.9078,1.690493 -0.53456,0.256107 -1.1061,0.324273 -1.6948,0.352542 -0.95077,0.03961 -2.74059,0.01305 1.5799,0.01734 0.14854,1.55e-4 -0.2971,5.39e-4 -0.44564,8.03e-4 -0.54435,2.74e-4 -0.40666,2.74e-4 -0.96117,-0.0018 -0.80944,-0.0073 -1.62171,-0.0082 -2.42647,-0.106604 -0.4173,-0.06946 -0.65183,-0.12369 -0.95901,-0.428649 -0.35707,-0.490701 -0.50855,-1.078466 -0.69758,-1.647182 -0.32444,-0.971688 -0.57758,-1.963495 -0.86349,-2.947086 -0.49631,-1.555365 -1.01747,-3.102935 -1.59475,-4.63035 -0.33959,-0.87435 -0.15679,-0.389063 -0.44485,-1.181062 -0.0508,-0.139865 -0.008,-0.386479 -0.15324,-0.419339 -2.19312,-0.496542 -2.49527,-1.060822 -3.1159,-0.01451 -0.35134,0.637922 -0.53144,1.344367 -0.74257,2.03774 -0.36912,1.213219 -0.62091,2.452635 -0.85655,3.69792 -0.28062,1.550454 -0.48375,3.113349 -0.72122,4.670795 -0.20466,1.688621 -0.2945,3.389008 -0.43858,5.083462 -0.13648,1.751512 -0.22305,3.508619 -0.52375,5.24316 -0.28226,1.468537 -0.65772,2.938757 -1.4167,4.242477 -0.20079,0.32098 -0.39887,0.71321 -0.69877,0.95991 -0.11499,0.0946 -0.16008,0.08 -0.2891,0.0877 0.9033,0.0103 1.80661,0.0206 2.70992,0.0311 -0.31385,-0.016 -0.52809,-0.1804 -0.70484,-0.43988 -0.29198,-0.51202 -0.50637,-1.06631 -0.7767,-1.59013 -0.35158,-0.90543 -0.70292,-1.81411 -0.93541,-2.75915 -0.19599,-1.030974 -0.34872,-2.073448 -0.43407,-3.119353 -0.1126,-1.282316 -0.16194,-2.570648 -0.32518,-3.848693 -0.18468,-1.626424 -0.25541,-3.263875 -0.47328,-4.886831 -0.26461,-1.677376 -0.59685,-3.352935 -1.26077,-4.925268 -0.33666,-0.750295 -2.30977,-5.675481 -4.12279,-2.097747 -0.20898,0.776318 -0.27249,1.578549 -0.36977,2.374145 -0.17502,1.399791 -0.37515,2.798067 -0.50032,4.20275 -0.15456,1.493004 -0.35295,2.980804 -0.55413,4.468131 -0.25524,1.573693 -0.58175,3.132417 -0.887,4.696782 -0.29949,1.700053 -0.60198,3.404554 -1.16902,5.040934 -0.49296,1.47261 -1.01411,2.94826 -1.78813,4.30098 -0.16997,0.2744 -0.30534,0.54749 -0.5501,0.76443 -0.0577,0.0512 -0.28037,0.10337 -0.20355,0.10979 0.88812,0.0743 1.78127,0.0644 2.6719,0.0967 -0.0362,-0.008 -0.0811,0.002 -0.10868,-0.0231 -0.0469,-0.0419 -0.0652,-0.1075 -0.0978,-0.16126 -0.3056,-0.69807 -0.45999,-1.45117 -0.6007,-2.19682 -0.2187,-1.06791 -0.39205,-2.13884 -0.46547,-3.22785 -0.14564,-0.99938 -0.27588,-2.000127 -0.36387,-3.006361 -0.145,-1.27435 -0.26903,-2.551929 -0.30737,-3.83472 -0.0498,-0.962387 -0.0762,-1.933885 -0.24422,-2.883986 -0.19035,-0.986129 -0.39554,-1.969465 -0.55775,-2.96076 -0.16883,-0.900702 -0.30522,-1.808725 -0.53219,-2.697332 -0.23031,-0.765228 -0.56858,-1.378934 -1.01811,-2.040133 -0.43657,-0.670882 -0.86064,-1.349916 -1.29091,-2.024706 -0.84933,-0.943274 -2.84818,-0.664447 -3.62404,0.300341 -0.44519,0.723139 -0.58828,1.574761 -0.94275,2.341175 -0.66244,1.48227 -1.41472,2.934016 -2.59765,4.076686 -0.17016,0.154671 -0.33111,0.320102 -0.51047,0.464011 -0.688,0.552012 -1.50308,0.925073 -2.33015,1.213675 -0.77425,0.182784 -1.58107,0.174816 -2.36621,0.293687 -1.12604,0.113376 -2.25533,0.194385 -3.38806,0.155126 0,0 2.77606,0.439686 2.77606,0.439686 z" />
    <path
       style="fill:#000080;stroke:#000080;stroke-width:0.825;stroke-opacity:1;stop-color:#000000;stroke-miterlimit:4;stroke-dasharray:none"
       id="path1771"
       d="m 138.11932,91.862462 c 1.08192,0.01934 2.15832,-0.08651 3.23279,-0.198155 0.80517,-0.139017 1.65897,-0.04064 2.43092,-0.329845 0.78928,-0.342556 1.56643,-0.723479 2.21581,-1.29948 0.17377,-0.154128 0.32906,-0.327911 0.49358,-0.491868 1.12882,-1.190702 1.8644,-2.653829 2.55123,-4.124817 0.37332,-0.745739 0.55674,-1.590699 1.07638,-2.255428 0.11916,-0.122568 0.26094,-0.197919 0.42554,-0.239339 0.044,-0.01106 0.17936,-0.02392 0.134,-0.02363 -2.80253,0.01844 -3.51579,-0.156461 -2.5202,0.07169 0.54294,0.543263 0.93413,1.233805 1.34501,1.880327 0.41064,0.607502 0.74254,1.250051 0.97709,1.943333 0.24816,0.862605 0.39329,1.749139 0.56521,2.628728 0.16632,0.975048 0.37229,1.942904 0.53167,2.919103 0.12615,0.935186 0.21746,1.875422 0.29235,2.816087 0.0821,1.266383 0.16056,2.533116 0.28725,3.795909 0.064,0.998511 0.19676,1.988203 0.33993,2.977583 0.0931,1.07763 0.26384,2.13921 0.47083,3.19993 0.12705,0.74887 0.26819,1.49697 0.51302,2.21728 0.49159,1.14418 1.11896,0.48213 3.09911,0.34126 0.10924,-0.008 0.61062,-1.00052 0.6522,-1.08239 0.69485,-1.37509 1.19463,-2.83965 1.6817,-4.29841 0.5258,-1.6361 0.85182,-3.326001 1.16988,-5.01199 0.30694,-1.544084 0.6182,-3.087134 0.87678,-4.640217 0.20099,-1.473361 0.4175,-2.946008 0.55871,-4.426535 0.12313,-1.384215 0.32397,-2.76307 0.52683,-4.138078 0.13359,-0.764024 0.17282,-1.566291 0.48169,-2.287188 0.95293,0.301311 -0.54176,-0.182533 -2.54708,0.134012 -0.12428,0.01963 0.18686,0.170235 0.26476,0.269047 0.40014,0.507555 0.67415,1.11524 0.95674,1.690499 0.70791,1.511321 1.00067,3.153699 1.26476,4.787186 0.22531,1.594911 0.29418,3.205908 0.442,4.808966 0.15948,1.258927 0.18091,2.527964 0.26498,3.792326 0.0699,1.043971 0.23737,2.078164 0.42123,3.107162 0.23249,0.94401 0.56921,1.85699 0.89579,2.77118 0.21153,0.54835 0.46264,1.08065 0.7229,1.60725 0.16048,0.29153 0.36891,0.54029 0.67806,0.67173 3.02851,0.0678 2.73521,0.62264 3.77016,-1.29497 0.68906,-1.33486 1.02114,-2.81423 1.29061,-4.281241 0.27477,-1.723681 0.40171,-3.464333 0.52246,-5.203913 0.1251,-1.670714 0.24778,-3.341417 0.44708,-5.005117 0.22191,-1.534925 0.4498,-3.068839 0.73472,-4.593453 0.24014,-1.220697 0.5087,-2.433132 0.89857,-3.615298 0.20889,-0.699704 0.42526,-1.331447 0.82139,-1.944285 0.0329,-0.03701 0.0493,-0.108112 0.0987,-0.111035 0.0442,-0.0026 0.13166,0.09735 0.0874,0.100028 -0.88184,0.05342 -1.77851,-0.0909 -2.6498,0.05521 -0.13525,0.02268 0.14765,0.231664 0.20968,0.353973 0.19011,0.374875 0.3436,0.767228 0.51533,1.150874 0.62812,1.476946 1.13352,3.002822 1.57968,4.543417 0.25299,0.974508 0.45518,1.960748 0.77014,2.91783 0.17386,0.580962 0.33024,1.163892 0.62742,1.696011 0.23381,0.368536 0.57914,0.531696 0.98848,0.63909 0.81051,0.143447 1.63722,0.140936 2.45755,0.151652 1.73108,-0.02127 3.47261,0.123634 5.19774,-0.025 0.42613,-0.04791 0.86338,-0.05616 1.2672,-0.218422 0.0514,-0.02066 0.39506,-0.201861 0.45657,-0.23404 0.58296,-0.434739 0.69598,-1.247333 0.83402,-1.914265 0.0769,-1.082406 -0.22031,-2.130735 -0.56628,-3.14406 -0.51766,-1.367864 -0.41883,-0.910807 -3.07218,-0.358219 -0.1,0.02082 0.0527,0.197368 0.0843,0.294444 0.0421,0.129241 0.0911,0.256122 0.13666,0.384185 0.38197,1.07926 0.75558,2.162625 1.05455,3.268139 0.1179,0.575985 0.3251,1.213313 0.15683,1.803474 -0.0294,0.103127 -0.0785,0.199604 -0.11769,0.299405 -0.66527,1.182624 -1.73912,2.097791 -2.77261,2.952515 -0.24155,0.179874 -0.48105,0.36254 -0.72466,0.53962 -0.68028,0.494501 -0.59894,0.424762 -1.25885,0.860713 -0.37555,0.24809 -0.73426,0.479555 -1.05419,0.795835 0,0 2.7465,0.214411 2.7465,0.214411 v 0 c 0.28068,-0.292775 0.60528,-0.517316 0.93383,-0.754801 0.64624,-0.467124 1.29254,-0.934207 1.91777,-1.42957 1.09134,-0.897491 2.24205,-1.83461 2.94614,-3.081155 0.0418,-0.117626 0.0947,-0.231884 0.12541,-0.352883 0.16263,-0.640961 -0.0638,-1.305001 -0.21435,-1.922684 -0.33253,-1.093666 -0.70832,-2.173608 -1.01792,-3.274391 -0.0322,-0.124296 -0.0661,-0.248187 -0.0967,-0.372891 -0.0165,-0.06732 0.0245,-0.198911 -0.0447,-0.203097 -0.92808,-0.05613 -1.85942,0.04107 -2.78915,0.03171 -0.0321,-2.65e-4 0.0474,-0.07337 0.0761,-0.05903 0.0983,0.04907 0.25672,0.422339 0.27507,0.459494 0.37371,0.952355 0.68796,1.953305 0.58645,2.989093 -0.15034,0.612273 -0.29532,1.340123 -0.89599,1.668481 -0.5276,0.252783 -1.0917,0.320062 -1.67275,0.347962 -0.93839,0.03913 -2.70492,0.01286 1.55935,0.01714 0.14661,1.48e-4 -0.29323,5.29e-4 -0.43984,7.94e-4 -0.53726,2.64e-4 -0.40137,2.64e-4 -0.94866,-0.0024 -0.79891,-0.0073 -1.60061,-0.0084 -2.3949,-0.105219 -0.41187,-0.06855 -0.64335,-0.122087 -0.94653,-0.423069 -0.35242,-0.484314 -0.50193,-1.064437 -0.6885,-1.625748 -0.32021,-0.959041 -0.57006,-1.937943 -0.85225,-2.908734 -0.48985,-1.535123 -1.00423,-3.062552 -1.574,-4.570095 -0.33517,-0.862965 -0.15474,-0.383998 -0.43906,-1.165691 -0.0502,-0.138035 -0.008,-0.381444 -0.15124,-0.413879 -2.16458,-0.490077 -2.4628,-1.047017 -3.07536,-0.01431 -0.34676,0.629621 -0.52452,1.326872 -0.7329,2.011225 -0.36431,1.197427 -0.61282,2.420718 -0.8454,3.649794 -0.27697,1.530276 -0.47746,3.072832 -0.71184,4.610016 -0.20199,1.666639 -0.29066,3.344899 -0.43287,5.017304 -0.1347,1.728719 -0.22014,3.462959 -0.51694,5.17494 -0.27858,1.449426 -0.64916,2.900516 -1.39825,4.187256 -0.19818,0.31681 -0.39368,0.70394 -0.68968,0.94742 -0.11349,0.0934 -0.158,0.0789 -0.28534,0.0866 0.89155,0.0102 1.7831,0.0204 2.67465,0.0307 -0.30976,-0.0158 -0.52121,-0.17805 -0.69566,-0.43416 -0.28818,-0.50536 -0.49979,-1.05243 -0.7666,-1.56944 -0.347,-0.89364 -0.69377,-1.79049 -0.92323,-2.72324 -0.19344,-1.017556 -0.34418,-2.046468 -0.42842,-3.078769 -0.11114,-1.265616 -0.15983,-2.537185 -0.32095,-3.798607 -0.18228,-1.605254 -0.25209,-3.221395 -0.46712,-4.82324 -0.26116,-1.655538 -0.58908,-3.309292 -1.24436,-4.861161 -0.33228,-0.740531 -2.27972,-5.601628 -4.06914,-2.070444 -0.20626,0.766205 -0.26894,1.557997 -0.36496,2.343243 -0.17274,1.381577 -0.37027,2.761652 -0.49381,4.148053 -0.15255,1.473575 -0.34835,2.942013 -0.54692,4.409985 -0.25192,1.553215 -0.57418,3.091656 -0.87545,4.635658 -0.29559,1.67793 -0.59415,3.360262 -1.15381,4.975342 -0.48654,1.45345 -1.00091,2.9099 -1.76486,4.24501 -0.16775,0.27083 -0.30137,0.54036 -0.54294,0.75448 -0.0569,0.0505 -0.27672,0.10203 -0.2009,0.10837 0.87656,0.0733 1.75809,0.0636 2.63713,0.0954 -0.0358,-0.008 -0.08,0.002 -0.10726,-0.0228 -0.0463,-0.0413 -0.0643,-0.10611 -0.0965,-0.15916 -0.30162,-0.68899 -0.454,-1.43229 -0.59288,-2.16824 -0.21585,-1.05401 -0.38695,-2.111 -0.45941,-3.18584 -0.14374,-0.98637 -0.27229,-1.974103 -0.35913,-2.967248 -0.14312,-1.25776 -0.26553,-2.518712 -0.30338,-3.784812 -0.0492,-0.949859 -0.0752,-1.908717 -0.24103,-2.846453 -0.18788,-0.973302 -0.3904,-1.943841 -0.5505,-2.922225 -0.16663,-0.888982 -0.30125,-1.785197 -0.52526,-2.66223 -0.22731,-0.755271 -0.56119,-1.360993 -1.00486,-2.013585 -0.43089,-0.662154 -0.84944,-1.332351 -1.27412,-1.998358 -0.83826,-0.930997 -2.81111,-0.655796 -3.57687,0.296429 -0.4394,0.713726 -0.58062,1.554273 -0.93048,2.310712 -0.65382,1.462982 -1.39631,2.895825 -2.56385,4.023627 -0.16794,0.152657 -0.3268,0.315942 -0.50382,0.45797 -0.67905,0.54483 -1.48352,0.913037 -2.29982,1.197882 -0.76418,0.180414 -1.5605,0.172543 -2.33542,0.289865 -1.11139,0.1119 -2.22598,0.191857 -3.34397,0.153117 0,0 2.73993,0.433961 2.73993,0.433961 z" />
  </g>
</svg>
