<?xml version="1.0" encoding="UTF-8" standalone="no"?>
<svg
   xmlns:dc="http://purl.org/dc/elements/1.1/"
   xmlns:cc="http://creativecommons.org/ns#"
   xmlns:rdf="http://www.w3.org/1999/02/22-rdf-syntax-ns#"
   xmlns:svg="http://www.w3.org/2000/svg"
   xmlns="http://www.w3.org/2000/svg"
   xmlns:sodipodi="http://sodipodi.sourceforge.net/DTD/sodipodi-0.dtd"
   xmlns:inkscape="http://www.inkscape.org/namespaces/inkscape"
   width="210mm"
   height="297mm"
   viewBox="0 0 210 297"
   version="1.1"
   id="svg8"
   inkscape:version="1.0.2 (e86c870879, 2021-01-15, custom)"
   sodipodi:docname="logo1.svg">
  <defs
     id="defs2" />
  <sodipodi:namedview
     id="base"
     pagecolor="#ffffff"
     bordercolor="#666666"
     borderopacity="1.0"
     inkscape:pageopacity="0.0"
     inkscape:pageshadow="2"
     inkscape:zoom="0.47039208"
     inkscape:cx="158.11833"
     inkscape:cy="609.87723"
     inkscape:document-units="mm"
     inkscape:current-layer="layer1"
     inkscape:document-rotation="0"
     showgrid="false"
     inkscape:window-width="1916"
     inkscape:window-height="1041"
     inkscape:window-x="0"
     inkscape:window-y="18"
     inkscape:window-maximized="0" />
  <metadata
     id="metadata5">
    <rdf:RDF>
      <cc:Work
         rdf:about="">
        <dc:format>image/svg+xml</dc:format>
        <dc:type
           rdf:resource="http://purl.org/dc/dcmitype/StillImage" />
        <dc:title />
      </cc:Work>
    </rdf:RDF>
  </metadata>
  <g
     inkscape:label="Layer 1"
     inkscape:groupmode="layer"
     id="layer1">
    <rect
       style="fill:#0000ff;fill-opacity:0.47127;stroke-width:0.264583"
       id="rect878"
       width="84.272644"
       height="84.769806"
       x="62.928543"
       y="13.938344"
       ry="11.825425" />
    <path
       style="fill:#ffffff;fill-opacity:0.806634;stroke-width:0.264583"
       id="path882"
       d="m 88.419051,50.565509 c 1.57068,-2.723886 3.47038,-5.240562 5.37244,-7.738078 2.03221,-2.572537 4.17775,-5.0536 6.358939,-7.500263 1.11561,-1.287446 2.32954,-2.498013 3.33713,-3.875412 0.0479,-0.07007 0.3362,-0.40064 0.24077,-0.559 -2.98466,-4.953108 -9.380569,2.839863 -11.844889,6.535392 -1.82375,3.254104 -1.49012,6.344154 -0.64081,9.834712 1.51558,4.933285 4.63777,9.072046 7.76069,13.092895 2.752839,3.491768 5.592269,6.911828 8.155869,10.547224 1.78081,2.444853 2.88,5.111711 3.21904,8.105529 0.13242,2.641256 -0.69836,4.107855 -2.81541,5.583926 -4.28582,2.279128 1.88264,-0.981604 7.20935,-4.304845 0.3505,-0.21867 -0.76602,0.312497 -1.16083,0.434133 -1.38385,0.426361 -2.69451,0.444836 -4.12774,0.412608 -3.19077,-0.231252 -6.21728,-1.165829 -8.98194,-2.751778 -2.876479,-2.055839 -3.222699,-4.410146 -2.940819,-7.743362 0.97513,-6.056552 4.418199,-11.110256 7.933489,-15.974202 6.64217,-8.594022 14.32066,-16.310896 21.8749,-24.091296 4.79719,-4.872486 9.51882,-9.817903 14.20846,-14.793641 0,0 -9.23028,3.86601 -9.23028,3.86601 v 0 c -4.47146,4.940215 -9.03415,9.795587 -13.69818,14.555058 -7.68524,7.928086 -15.53359,15.749075 -22.361399,24.447961 -3.71864,5.094053 -7.34504,10.410039 -8.324812,16.786611 -0.29387,4.065741 0.155442,6.206697 3.429332,8.850054 2.84411,1.723265 5.96558,2.765411 9.274069,3.174224 1.07251,0.103593 1.93001,0.233347 3.00658,0.159367 5.22425,-0.358992 9.86156,-4.367588 14.06201,-7.128243 1.98446,-1.915967 2.59305,-3.804811 2.29179,-6.56427 -0.49477,-3.143646 -1.64626,-5.960372 -3.62401,-8.486159 -2.65275,-3.598004 -5.57473,-6.976467 -8.36722,-10.464897 -3.02599,-3.906721 -6.09362,-7.897841 -7.40227,-12.754795 -0.670489,-3.490769 -0.746339,-6.161512 1.3644,-9.17938 3.11641,-4.080501 3.63337,-0.986308 -7.954339,3.795384 -1.43675,0.59288 -0.0882,-2.040493 -0.8393,-0.957299 -0.98678,1.263096 -2.04205,2.469879 -3.08886,3.68314 -2.118832,2.472317 -4.246482,4.940685 -6.222702,7.529943 -1.93991,2.622374 -3.86739,5.253513 -5.66939,7.973774 0,0 10.195942,-4.501025 10.195942,-4.501025 z" />
    <rect
       style="fill:#0000ff;fill-opacity:0.47127;stroke-width:0.264583"
       id="rect878-7"
       width="84.272644"
       height="84.769806"
       x="62.928543"
       y="106.20565"
       ry="11.825425" />
    <path
       style="fill:#ffffff;fill-opacity:0.806634;stroke-width:0.264583"
       id="path914"
       d="m 73.02206,126.6931 c 0.4164,2.95762 0.61866,5.94138 0.8769,8.91595 0.31348,3.17507 0.56443,6.35498 0.74056,9.5405 0.086,2.38538 0.15547,4.76466 0.43647,7.13605 0.35828,2.37805 0.77152,4.74548 1.05821,7.13385 0.31978,2.30775 0.46175,4.63141 0.53582,6.95819 0.0433,1.76312 0.0281,3.52689 0.014,5.29026 0.006,1.05881 -0.0719,2.1141 -0.15165,3.16891 -0.0378,0.46863 -0.0628,0.93831 -0.081,1.40808 -0.005,0.14146 -10e-4,0.0773 -0.01,0.19259 0,0 10.08871,-5.12603 10.08871,-5.12603 v 0 c -0.007,-0.265 -0.002,0.20584 -0.005,-0.17448 -2.1e-4,-0.44611 0.0124,-0.89192 0.0269,-1.33777 0.0339,-1.05733 0.0631,-2.11449 0.0218,-3.17216 -0.0183,-1.76096 -0.0463,-3.52213 -0.12878,-5.28146 -0.11974,-2.34819 -0.30376,-4.69351 -0.60387,-7.02618 -0.31189,-2.37885 -0.73702,-4.73958 -1.04979,-7.11811 -0.23372,-2.34862 -0.29967,-4.70744 -0.48456,-7.06 -0.25254,-3.17455 -0.51766,-6.34798 -0.83266,-9.51708 -0.26622,-3.02122 -0.50379,-6.04913 -0.556,-9.08266 0,0 -9.89674,5.15155 -9.89674,5.15155 z" />
    <path
       style="fill:#ffffff;fill-opacity:0.806634;stroke-width:0.264583"
       id="path916"
       d="m 89.44455,127.84282 c 2.6139,3.20491 5.38877,6.26798 8.18159,9.31595 1.87657,2.03637 3.79423,4.03446 5.67314,6.06859 0.34072,0.38127 0.68892,0.75606 1.0188,1.1469 0.10074,0.11936 0.2658,0.21331 0.29067,0.3675 0.006,0.0387 -0.0656,-0.043 -0.0984,-0.0646 -0.16836,-0.0673 -0.32815,-0.24147 -0.50508,-0.20185 -0.28,0.0627 -0.48115,0.31289 -0.71748,0.47563 -0.38855,0.26755 -0.76998,0.54532 -1.15696,0.81513 -1.73588,1.21025 -3.49023,2.39236 -5.24804,3.5704 -2.85713,1.91404 -5.70565,3.84131 -8.66027,5.60283 -3.77719,2.13032 -1.07826,0.61204 8.0361,-4.66108 0,0 -8.63771,6.98556 -8.63771,6.98556 v 0 c 10.36045,-5.98152 6.78706,-3.80831 10.8553,-6.29202 2.8002,-1.77129 5.52036,-3.6633 8.27772,-5.49982 1.83057,-1.22431 3.67018,-2.4375 5.48116,-3.69079 0.0719,-0.0497 1.91303,-1.29155 2.10551,-1.61713 0.14438,-0.24423 0.0708,-0.563 0.10626,-0.8445 -0.35872,-0.78105 -1.11105,-1.27174 -1.7031,-1.87539 -2.03695,-1.91056 -4.07919,-3.81688 -6.02876,-5.81768 -2.81509,-2.90807 -5.59863,-5.91544 -7.67662,-9.41079 0,0 -9.59385,5.62712 -9.59385,5.62712 z" />
    <path
       style="fill:#ffffff;fill-opacity:0.806634;stroke-width:0.264583"
       id="path916-3"
       d="m 107.30636,125.8835 c 2.61389,3.20491 5.38876,6.26799 8.18159,9.31596 1.87656,2.03636 3.79422,4.03446 5.67313,6.06858 0.34072,0.38127 0.68892,0.75607 1.0188,1.14691 0.10074,0.11935 0.2658,0.2133 0.29067,0.36749 0.006,0.0387 -0.0656,-0.043 -0.0984,-0.0646 -0.16836,-0.0673 -0.32815,-0.24146 -0.50508,-0.20184 -0.28,0.0627 -0.48115,0.31289 -0.71748,0.47562 -0.38854,0.26756 -0.76998,0.54532 -1.15696,0.81513 -1.73588,1.21025 -3.49023,2.39237 -5.24804,3.5704 -2.85713,1.91404 -5.70565,3.84132 -8.66026,5.60283 -3.7772,2.13033 -1.07827,0.61205 8.03609,-4.66107 0,0 -8.63771,6.98556 -8.63771,6.98556 v 0 c 10.36045,-5.98152 6.78706,-3.80832 10.8553,-6.29203 2.8002,-1.77129 5.52036,-3.6633 8.27773,-5.49981 1.83056,-1.22431 3.67017,-2.4375 5.48115,-3.6908 0.0719,-0.0497 1.91303,-1.29155 2.10551,-1.61713 0.14438,-0.24423 0.0708,-0.56299 0.10626,-0.84449 -0.35872,-0.78106 -1.11105,-1.27175 -1.7031,-1.8754 -2.03694,-1.91055 -4.07919,-3.81687 -6.02876,-5.81767 -2.81509,-2.90807 -5.59863,-5.91544 -7.67662,-9.41079 0,0 -9.59385,5.62711 -9.59385,5.62711 z" />
    <rect
       style="fill:#0000ff;fill-opacity:0.47127;stroke-width:0.264583"
       id="rect878-5"
       width="84.272644"
       height="84.769806"
       x="62.859978"
       y="204.10922"
       ry="11.825425" />
    <ellipse
       style="fill:#ffffff;fill-opacity:1;stroke-width:0.264583"
       id="path962"
       cx="119.96932"
       cy="231.07686"
       rx="14.874807"
       ry="14.573699" />
    <ellipse
       style="fill:#ffffff;fill-opacity:0.119219;stroke-width:0.264583"
       id="path962-1"
       cx="84.78524"
       cy="267.82605"
       rx="14.874807"
       ry="14.573699" />
    <ellipse
       style="fill:#ffffff;fill-opacity:0.119219;stroke-width:0.264583"
       id="path962-1-3"
       cx="88.011894"
       cy="264.03821"
       rx="14.874807"
       ry="14.573699" />
    <ellipse
       style="fill:#ffffff;fill-opacity:0.119219;stroke-width:0.264583"
       id="path962-1-6"
       cx="91.659447"
       cy="260.81155"
       rx="14.874807"
       ry="14.573699" />
    <ellipse
       style="fill:#ffffff;fill-opacity:0.119219;stroke-width:0.264583"
       id="path962-1-0"
       cx="93.763786"
       cy="258.56693"
       rx="14.874807"
       ry="14.573699" />
    <ellipse
       style="fill:#ffffff;fill-opacity:0.119219;stroke-width:0.264583"
       id="path962-1-62"
       cx="96.008415"
       cy="255.76111"
       rx="14.874807"
       ry="14.573699" />
    <ellipse
       style="fill:#ffffff;fill-opacity:0.119219;stroke-width:0.264583"
       id="path962-1-61"
       cx="96.99044"
       cy="254.4985"
       rx="14.874807"
       ry="14.573699" />
    <ellipse
       style="fill:#ffffff;fill-opacity:0.119219;stroke-width:0.264583"
       id="path962-1-8"
       cx="98.393333"
       cy="252.81502"
       rx="14.874807"
       ry="14.573699" />
    <ellipse
       style="fill:#ffffff;fill-opacity:0.119219;stroke-width:0.264583"
       id="path962-1-7"
       cx="99.515648"
       cy="251.13155"
       rx="14.874807"
       ry="14.573699" />
    <ellipse
       style="fill:#ffffff;fill-opacity:0.119219;stroke-width:0.264583"
       id="path962-1-9"
       cx="101.19915"
       cy="249.58836"
       rx="14.874807"
       ry="14.573699" />
    <ellipse
       style="fill:#ffffff;fill-opacity:0.119219;stroke-width:0.264583"
       id="path962-1-2"
       cx="102.88262"
       cy="247.76459"
       rx="14.874807"
       ry="14.573699" />
    <ellipse
       style="fill:#ffffff;fill-opacity:0.119219;stroke-width:0.264583"
       id="path962-1-02"
       cx="103.44378"
       cy="246.78256"
       rx="14.874807"
       ry="14.573699" />
    <ellipse
       style="fill:#ffffff;fill-opacity:0.119219;stroke-width:0.264583"
       id="path962-1-37"
       cx="104.56609"
       cy="245.66025"
       rx="14.874807"
       ry="14.573699" />
    <ellipse
       style="fill:#ffffff;fill-opacity:0.119219;stroke-width:0.264583"
       id="path962-1-5"
       cx="106.67043"
       cy="243.83649"
       rx="14.874807"
       ry="14.573699" />
    <ellipse
       style="fill:#ffffff;fill-opacity:0.119219;stroke-width:0.264583"
       id="path962-1-92"
       cx="107.79275"
       cy="242.71416"
       rx="14.874807"
       ry="14.573699" />
    <ellipse
       style="fill:#ffffff;fill-opacity:0.119219;stroke-width:0.264583"
       id="path962-1-28"
       cx="110.45824"
       cy="240.46953"
       rx="14.874807"
       ry="14.573699" />
    <ellipse
       style="fill:#ffffff;fill-opacity:0.119219;stroke-width:0.264583"
       id="path962-1-97"
       cx="112.28204"
       cy="238.50546"
       rx="14.874807"
       ry="14.573699" />
    <ellipse
       style="fill:#ffffff;fill-opacity:0.119219;stroke-width:0.264583"
       id="path962-1-36"
       cx="113.26406"
       cy="237.52344"
       rx="14.874807"
       ry="14.573699" />
    <ellipse
       style="fill:#ffffff;fill-opacity:0.119219;stroke-width:0.264583"
       id="path962-1-1"
       cx="114.94753"
       cy="235.98026"
       rx="14.874807"
       ry="14.573699" />
    <ellipse
       style="fill:#ffffff;fill-opacity:0.119219;stroke-width:0.264583"
       id="path962-1-29"
       cx="116.631"
       cy="234.57736"
       rx="14.874807"
       ry="14.573699" />
    <ellipse
       style="fill:#ffffff;fill-opacity:0.119219;stroke-width:0.264583"
       id="path962-1-31"
       cx="119.57708"
       cy="232.47302"
       rx="14.874807"
       ry="14.573699" />
    <ellipse
       style="fill:#ffffff;fill-opacity:0.119219;stroke-width:0.264583"
       id="path962-1-94"
       cx="119.85766"
       cy="232.19244"
       rx="14.874807"
       ry="14.573699" />
    <ellipse
       style="fill:#ffffff;fill-opacity:0.119219;stroke-width:0.264583"
       id="path962-1-78"
       cx="119.85766"
       cy="232.05215"
       rx="14.874807"
       ry="14.573699" />
    <ellipse
       style="fill:#ffffff;fill-opacity:0.119219;stroke-width:0.264583"
       id="path962-1-4"
       cx="119.85766"
       cy="232.05215"
       rx="14.874807"
       ry="14.573699" />
  </g>
</svg>
