<?xml version="1.0" encoding="UTF-8" standalone="no"?>
<svg
   xmlns:osb="http://www.openswatchbook.org/uri/2009/osb"
   xmlns:dc="http://purl.org/dc/elements/1.1/"
   xmlns:cc="http://creativecommons.org/ns#"
   xmlns:rdf="http://www.w3.org/1999/02/22-rdf-syntax-ns#"
   xmlns:svg="http://www.w3.org/2000/svg"
   xmlns="http://www.w3.org/2000/svg"
   xmlns:sodipodi="http://sodipodi.sourceforge.net/DTD/sodipodi-0.dtd"
   xmlns:inkscape="http://www.inkscape.org/namespaces/inkscape"
   width="256px"
   height="255px"
   viewBox="0 0 256 255"
   version="1.1"
   preserveAspectRatio="xMidYMid"
   id="svg20"
   sodipodi:docname="photon-alternative.svg"
   inkscape:version="1.0.1 (3bc2e813f5, 2020-09-07)">
  <metadata
     id="metadata24">
    <rdf:RDF>
      <cc:Work
         rdf:about="">
        <dc:format>image/svg+xml</dc:format>
        <dc:type
           rdf:resource="http://purl.org/dc/dcmitype/StillImage" />
        <dc:title></dc:title>
      </cc:Work>
    </rdf:RDF>
  </metadata>
  <sodipodi:namedview
     pagecolor="#ffffff"
     bordercolor="#666666"
     borderopacity="1"
     objecttolerance="10"
     gridtolerance="10"
     guidetolerance="10"
     inkscape:pageopacity="0"
     inkscape:pageshadow="2"
     inkscape:window-width="1904"
     inkscape:window-height="1000"
     id="namedview22"
     showgrid="false"
     inkscape:zoom="2"
     inkscape:cx="47.258209"
     inkscape:cy="131.13679"
     inkscape:window-x="1448"
     inkscape:window-y="35"
     inkscape:window-maximized="0"
     inkscape:current-layer="g18" />
  <defs
     id="defs12">
    <linearGradient
       x1="12.9593594%"
       y1="12.0393928%"
       x2="79.6388325%"
       y2="78.2008538%"
       id="linearGradient-1">
      <stop
         stop-color="#387EB8"
         offset="0%"
         id="stop2" />
      <stop
         stop-color="#366994"
         offset="100%"
         id="stop4" />
    </linearGradient>
    <linearGradient
       x1="19.127525%"
       y1="20.5791813%"
       x2="90.7415328%"
       y2="88.4290372%"
       id="linearGradient-2">
      <stop
         stop-color="#FFE052"
         offset="0%"
         id="stop7"
         style="stop-color:#ff2a2a;stop-opacity:1" />
      <stop
         stop-color="#FFC331"
         offset="100%"
         id="stop9"
         style="stop-color:#ff5555;stop-opacity:1" />
    </linearGradient>
    <linearGradient
       x1="24.714942"
       y1="22.898217"
       x2="151.13554"
       y2="148.33669"
       id="linearGradient-1-3"
       gradientTransform="matrix(0.99888681,0,0,1.0011144,9.3536571,-5.9432395)"
       gradientUnits="userSpaceOnUse"
       osb:paint="gradient">
      <stop
         stop-color="#387EB8"
         offset="0%"
         id="stop2-6" />
      <stop
         stop-color="#366994"
         offset="100%"
         id="stop4-7" />
    </linearGradient>
  </defs>
  <g
     id="g18">
    <path
       d="m 126.91587,0.07227555 c -0.0325,0 -66.162368,7.05e-6 -66.194788,2.113e-5 C -4.0098376,0.10042127 -0.23854897,28.151294 -0.23854897,28.151294 l 0.0722755,60.958235 C 9.0266326,54.421203 41.536738,57.278341 41.536738,57.278341 h 86.262342 l 0.2732,8.781512 H 41.630717 c 0,0 -41.4861659,-4.704909 -41.4861659,60.711467 -4.63e-6,65.41635 36.2100509,63.09655 36.2100509,63.09655 h 21.610389 v -30.35573 c 0,0 -1.164855,-36.21005 35.631847,-36.21005 h 61.361942 c 0,0 34.47544,0.5573 34.47544,-33.31903 V 33.969509 c 0,-5e-6 5.23432,-33.89723828 -62.51835,-33.89723345 z"
       fill="url(#linearGradient-1)"
       id="path14"
       sodipodi:nodetypes="ssccccccscccscsss" />
    <path
       d="m 128.7571,254.12627 c 0.24845,0 66.4341,-4.1e-4 66.68053,-0.001 64.05901,-0.21383 60.04142,-28.11395 60.04142,-28.11395 l -0.0723,-62.16127 c -6.9507,34.78282 -41.29395,33.03422 -41.29395,33.03422 h -86.51213 v -8.74534 h 86.44156 c 0,0 41.48617,4.7049 41.48617,-60.71148 2e-5,-65.416353 -36.21005,-63.096551 -36.21005,-63.096551 h -21.61039 v 30.355724 c 0,0 1.16487,36.210047 -35.63185,36.210047 h -61.36195 c 0,0 -34.475435,-0.55729 -34.475435,33.31906 v 56.01355 c 0,0 -5.234323,33.89723 62.518355,33.89723 z"
       fill="url(#linearGradient-2)"
       id="path16"
       sodipodi:nodetypes="ssccccccscccscscss" />
  </g>
</svg>
